<svg xmlns="http://www.w3.org/2000/svg" xmlns:xlink="http://www.w3.org/1999/xlink" viewBox="0 0 279.74 279.74">
  <defs>
    <clipPath id="clip-path">
      <path d="M237,134.48c4-10.29,14.17-19.17,12.06-30.86s-11.3-20-22.64-27.5c-.66,1.81-1.62,4.84-1.2,6.78-2-2.41-5.27-6.35-5.45-7.87-1.16-7.14,2-14.61-3.49-21.41S198.48,41.79,190.2,40.5a13.44,13.44,0,0,0,1.6,8.33q-5.41-3.2-13.75-3.32c1.72,4.49,4.06,8.33,7.74,10.76a19.9,19.9,0,0,0-10.89,1.51c1.31,2.83,3.74,5.26,8.63,6.8l-2.78,1.82c6,5.77,8.42,12.69,13.82,15.55s12.21.57,17.77.15l8.27.75c.82,10.27-10.15,23.84-6.19,32.6s12.51,12,17.38,20c-.29,6.13-1,12.2-1.32,18.33-1.07,1.26-1.69,2.58-2.76,3.84q-3-7.05-11.56-13.84c-1.46,8.54-3,18.73-2.1,25.88s5.27,9.63,8.49,14.4c-3.85,9.76-11.06,18.16-19,26.21,1,.6-.9,3,0,3.54.41.27,3.61-1.25,4.09-1a220.58,220.58,0,0,0,22.57-26.95c7.69.13,21-5.35,23.94-12.92s1.81-16.74,1.34-25.27l-7.84,5.79a15.56,15.56,0,0,0-1.31-6.63,14.23,14.23,0,0,0-5.51,5.6l-.26-7.66a13.34,13.34,0,0,0-5.55,4.9C235.71,144.52,236.3,139.61,237,134.48Z" fill="#007739" stroke="#daba64" stroke-linecap="round" stroke-linejoin="round" stroke-width="2.01" clip-rule="evenodd"/>
    </clipPath>
    <clipPath id="clip-path-2">
      <path d="M44.37,172.84c-7.24-8.53-9.12-14-10.58-19.24S28.33,144,23.66,135.31c1.88.27,4.31,1.09,6.19,1.36-3.32-5-4.22-10.62-4.38-15.64a26.87,26.87,0,0,1,5.43,9.66c-1-7-3.81-14.08-6.84-21.12a65.74,65.74,0,0,1,19,22.29L36.93,92.46c-.9.8-2.35,3.46-4,5.37-1.87-6.69-.88-12.63,4-16,4.18,2.68,9.5,17.94,11.28,29.14.24-11.75.36-24,3.51-35.26S62.4,55,72.63,46.27L68.28,57.86A62.5,62.5,0,0,1,90.84,35.5l-8.07,18c6.47-4.24,14.58-6.52,23.81-7.45C104,49.75,100.16,54.17,95.4,56.2c4.35.69,9.31.14,13.66.83-7,3.66-15.14,8.06-21.74,10.76s-11.45,3.66-17.59,5.38c-5.28,5.55-9,11.28-9.32,17.39,3.73-6.24,10.54-14.65,18-16.12-5.67,7.84-10.74,17.81-14,25s-5.88,12.31-8.82,18.47C60.46,113,66.05,109,70.91,104.05,63.79,117.73,58.16,130.2,55,143.38a49.6,49.6,0,0,1,15.94-18.93A154.39,154.39,0,0,0,61.48,155c2.48-6.32,7.34-11.1,11.85-12.85-8.72,15.26-7.57,32.89.47,50,4.34,5.5,9.24,12.68,13.59,18.19l-5,5.09c-3.52-4.2-21.84-18.75-27.09-23.4s-8.38-10-12.66-13.37c-1.63.61-1.72,2.63-3.44,5-3.19-4.37-3.94-10.45-2.09-11.83S41.11,171.92,44.37,172.84Z" fill="#007739" stroke="#daba64" stroke-linecap="round" stroke-linejoin="round" stroke-width="2.01" clip-rule="evenodd"/>
    </clipPath>
    <clipPath id="clip-path-3">
      <path d="M141.52,259.78c-31.87,0-60.64-14.71-80.67-38l21.59-16.13c15.09,16.83,36,27.27,59.08,27.27s44-10.45,59.08-27.27l21.59,16.13C202.16,245.07,173.39,259.78,141.52,259.78Z" fill="#e30613" stroke="#daba64" stroke-linecap="round" stroke-miterlimit="22.93" stroke-width="2.07" clip-rule="evenodd"/>
    </clipPath>
    <clipPath id="clip-path-4">
      <path d="M141.77,146.65l26,9.54,2.25-4.78,3,.79c1.07-2.12,2.14-4.25,3.19-6.39l2.38.31c.86-2.46,1.71-4.93,2.55-7.4l2.61.54,4.56-6.73,1.74.07c1.29-1.93,2.55-3.85,3.83-5.8l6-.19c1.56-2.38,3.08-4.75,4.61-7.14l1.52-.09,3-5.64,2.06-.29c1.63-2.29,3.26-4.57,4.86-6.85L196,108.78c1.35-1.55,2.68-3.1,4-4.65q12.73-1.71,25.41-3.44c1.33-2.54,2.66-5.09,4-7.64l1.5-.11c1.61-2.43,3.17-4.86,4.73-7.3l1.95-.52q5.66-7.08,11.29-14.18-26.74,11.27-53.52,22.52L141.77,116Q115,104.72,88.21,93.47L34.61,70.94c3.81,4.75,7.63,9.48,11.4,14.2l1.95.52c1.59,2.44,3.15,4.87,4.71,7.29l1.5.11c1.33,2.56,2.66,5.1,4,7.64l25.39,3.43,4,4.65-19.88-2.17c1.63,2.28,3.26,4.56,4.86,6.85l2.06.29,3,5.64,1.52.09c1.54,2.38,3.06,4.76,4.59,7.12l6,.2,3.86,5.79,1.74-.07,4.56,6.73,2.61-.54c.86,2.47,1.71,4.94,2.55,7.4l2.38-.31c1.07,2.13,2.14,4.26,3.19,6.39l3-.79,2.25,4.78Z" fill="#daba64" clip-rule="evenodd"/>
    </clipPath>
    <clipPath id="clip-path-5">
      <path d="M141.52,34.15a35.5,35.5,0,0,1,4.78,12.16l0,142.09h7.81a3.92,3.92,0,0,1,3.34-2,4.59,4.59,0,0,1,0,9.11l-9.25,0c0,9.17,0,18.57,0,27.73-.17,2.6-3.13,5.14-6.68,5.14s-6.51-2.54-6.67-5.14c0-9.16,0-18.55,0-27.73l-9.25,0a4.59,4.59,0,0,1,0-9.11,3.92,3.92,0,0,1,3.34,2h7.81l0-142.09A35.5,35.5,0,0,1,141.52,34.15Z" fill="#daba64" clip-rule="evenodd"/>
    </clipPath>
    <clipPath id="clip-path-6">
      <path d="M109.43,86.67C114.57,91.31,184,155.4,189.14,160c3.21-1.19,4.94-3.31,5.37-6.19l-4.3,1a50.74,50.74,0,0,0,1.14-17.82c7.45,3,10.48,8.13,13,14.89a5.86,5.86,0,0,0-4,.6c1.25,8.08.24,16.16-2.6,24.5a57.21,57.21,0,0,1-25.52,2.49,5.24,5.24,0,0,0-.63,3.87c-7-2.43-13-5.82-16-13,8,.68,12.38.67,19.07-.6-.39,1.52-.69,2.61-1.07,4.13a7.74,7.74,0,0,0,6.45-5.16c-4.84-4.93-71.65-71.54-76.48-76.47Z" fill="#daba64" stroke="#daba64" stroke-linecap="round" stroke-linejoin="round" stroke-width="2.05" clip-rule="evenodd"/>
    </clipPath>
    <clipPath id="clip-path-7">
      <polygon points="119.59 101.86 101.24 112.9 95.76 107.41 110.45 92.72 125.15 78.02 130.63 83.51 121.88 98.06 119.59 101.86" fill="#daba64" clip-rule="evenodd"/>
    </clipPath>
    <clipPath id="clip-path-8">
      <path d="M174.11,86.67C169,91.31,99.54,155.4,94.41,160c-3.21-1.19-4.94-3.31-5.37-6.19l4.3,1a50.74,50.74,0,0,1-1.14-17.82c-7.45,3-10.48,8.13-13,14.89a5.86,5.86,0,0,1,4,.6c-1.25,8.08-.24,16.16,2.6,24.5a57.21,57.21,0,0,0,25.52,2.49,5.24,5.24,0,0,1,.63,3.87c7-2.43,13-5.82,16-13-8,.68-12.38.67-19.07-.6.39,1.52.69,2.61,1.07,4.13a7.74,7.74,0,0,1-6.45-5.16c4.84-4.93,71.65-71.54,76.48-76.47Z" fill="#daba64" stroke="#daba64" stroke-linecap="round" stroke-linejoin="round" stroke-width="2.05" clip-rule="evenodd"/>
    </clipPath>
    <clipPath id="clip-path-9">
      <polygon points="163.95 101.86 182.31 112.9 187.79 107.41 173.09 92.72 158.4 78.02 152.92 83.51 161.66 98.06 163.95 101.86" fill="#daba64" clip-rule="evenodd"/>
    </clipPath>
    <clipPath id="clip-path-10">
      <polygon points="141.61 165.01 137.24 155.7 134.28 159.35 133.26 154.72 129.72 157.86 129.42 153.13 125.43 155.7 125.83 150.96 116.14 154.46 119.63 144.79 114.95 145.27 117.5 141.28 112.77 140.99 115.92 137.44 111.28 136.43 114.92 133.37 105.59 128.99 114.92 124.61 111.28 121.54 115.92 120.53 112.77 116.98 117.5 116.69 114.95 112.7 119.63 113.18 116.14 103.52 125.83 107.01 125.43 102.27 129.42 104.84 129.72 100.11 133.26 103.25 134.28 98.62 137.24 102.27 141.61 92.96 145.97 102.27 148.94 98.62 149.95 103.25 153.5 100.11 153.8 104.84 157.79 102.27 157.38 107.01 167.08 103.52 163.58 113.18 168.26 112.7 165.71 116.69 170.44 116.98 167.3 120.53 171.94 121.54 168.3 124.61 177.63 128.99 168.3 133.37 171.94 136.43 167.3 137.44 170.44 140.99 165.71 141.28 168.26 145.27 163.58 144.79 167.08 154.46 157.38 150.96 157.79 155.7 153.8 153.13 153.5 157.86 149.95 154.72 148.94 159.35 145.97 155.7 141.61 165.01" fill="#daba64" stroke="#f9e093" stroke-miterlimit="22.93" clip-rule="evenodd"/>
    </clipPath>
    <clipPath id="clip-path-11">
      <path d="M137.63,133.25a.34.34,0,0,1,.2-.49c-.06-.17.28-.49.48-.46,0-.36.45-.53.67-.44,0-.17.46-.26.59-.15.08-.19.45-.19.56-.06a.38.38,0,0,1,.58.08c.15-.19.55,0,.56.24.19-.18.43,0,.47.18a.3.3,0,0,1,.45.29.23.23,0,0,1,.34.21.21.21,0,0,1,.27.26c.06-.1.19.16.2.24.06-.1.24,0,.25.18,0-.08.17,0,.21.12,0-.08.17,0,.22.1.06-.07.15,0,.21.08,0-.08.2-.05.22,0a.1.1,0,0,1,.18,0c0-.08.09-.09.15,0s.07-.13.15-.09,0-.13.09-.11a.11.11,0,0,1,.05-.16s0-.12,0-.12-.07-.11,0-.13-.08-.09,0-.13a.08.08,0,0,1-.07-.12c-.06,0-.1,0-.07-.1s-.1,0-.09-.08-.08,0-.1-.05-.07,0-.09,0a.08.08,0,0,1-.1,0s-.06,0-.09,0,0,.05-.08,0a.21.21,0,0,1,0,.24.28.28,0,0,1-.36.16.35.35,0,0,1-.25-.38.53.53,0,0,1,.3-.43c0-.09.16-.12.22-.09a.13.13,0,0,1,.19,0,.13.13,0,0,1,.19,0,.13.13,0,0,1,.19,0,.17.17,0,0,1,.21.07.16.16,0,0,1,.21.11c.14-.05.26.13.24.23.12,0,.25.2.15.31a.2.2,0,0,1,.08.33.17.17,0,0,1,0,.28c.08.14,0,.19,0,.25a.25.25,0,0,1-.11.31.21.21,0,0,1-.17.25c0,.12-.11.23-.22.21s-.16.2-.28.14c0,.11-.19.19-.31.1,0,.1-.2.15-.32.09,0,.1-.28.08-.36,0-.06.1-.27.07-.34,0a.23.23,0,0,1-.35-.09.19.19,0,0,1-.3-.09.24.24,0,0,1-.34-.19.19.19,0,0,1-.28-.16c-.09.07-.21,0-.26-.13a.15.15,0,0,1-.22-.13.17.17,0,0,1-.25-.08c0,.08-.2.08-.21,0s-.19.09-.22,0a.15.15,0,0,1-.2.09c0,.09,0,.17-.08.19.07.06,0,.26-.09.23s-.09.05-.38,0a5.47,5.47,0,0,1-1-.18,4.28,4.28,0,0,1-1-.44A2.29,2.29,0,0,0,137.63,133.25Z" fill="#daba64" clip-rule="evenodd"/>
    </clipPath>
  </defs>
  <title>Recurso 1</title>
  <g id="Capa_2" data-name="Capa 2">
    <g id="Capa_1-2" data-name="Capa 1">
      <g>
        <g>
          <path d="M139.87,1A138.89,138.89,0,1,0,278.76,139.87,138.91,138.91,0,0,0,139.87,1Z" fill="#daba64" stroke="#f9e093" stroke-miterlimit="22.93" stroke-width="1.96" fill-rule="evenodd"/>
          <path d="M139.87,9.3A130.57,130.57,0,1,0,270.44,139.87,130.59,130.59,0,0,0,139.87,9.3Z" fill="#f9e093" fill-rule="evenodd"/>
        </g>
        <g>
          <g>
            <g>
              <path d="M237,134.48c4-10.29,14.17-19.17,12.06-30.86s-11.3-20-22.64-27.5c-.66,1.81-1.62,4.84-1.2,6.78-2-2.41-5.27-6.35-5.45-7.87-1.16-7.14,2-14.61-3.49-21.41S198.48,41.79,190.2,40.5a13.44,13.44,0,0,0,1.6,8.33q-5.41-3.2-13.75-3.32c1.72,4.49,4.06,8.33,7.74,10.76a19.9,19.9,0,0,0-10.89,1.51c1.31,2.83,3.74,5.26,8.63,6.8l-2.78,1.82c6,5.77,8.42,12.69,13.82,15.55s12.21.57,17.77.15l8.27.75c.82,10.27-10.15,23.84-6.19,32.6s12.51,12,17.38,20c-.29,6.13-1,12.2-1.32,18.33-1.07,1.26-1.69,2.58-2.76,3.84q-3-7.05-11.56-13.84c-1.46,8.54-3,18.73-2.1,25.88s5.27,9.63,8.49,14.4c-3.85,9.76-11.06,18.16-19,26.21,1,.6-.9,3,0,3.54.41.27,3.61-1.25,4.09-1a220.58,220.58,0,0,0,22.57-26.95c7.69.13,21-5.35,23.94-12.92s1.81-16.74,1.34-25.27l-7.84,5.79a15.56,15.56,0,0,0-1.31-6.63,14.23,14.23,0,0,0-5.51,5.6l-.26-7.66a13.34,13.34,0,0,0-5.55,4.9C235.71,144.52,236.3,139.61,237,134.48Z" fill="#007739" fill-rule="evenodd"/>
              <g clip-path="url(#clip-path)">
                <path d="M218.88,81.72c-4.87-11.83-17.4-20.95-33.22-17M187.75,56a57,57,0,0,0,10.38,8.19M193.7,48.53c18.09,7.07,24.76,18.82,25.32,33M212,61.18A72.67,72.67,0,0,0,192.25,40.8m19.06,38c-5.69-2.49-13.89-6.45-22.86-10.59m-1.2-18c10,6.22,24.68,16.31,26.29,22.69M194.9,67.57l1.3,4.05L191.67,73m8.74-3,1.46,4.66-5.67,1m10.33-4.46,1.42,6.07-5.85,1.56m2.8-27L204.16,47M210,58l0-5.31m5.71,13.78,0-7.21m-22.61-2.65,5.19,1.08L197.79,54m1.75,7.29,4.93,1.29v-4m6.7,9.41-.52-4.67M196,63.21l-12.41-3m3.71-1.46,1.45,2.77L186.93,63m43.86,32.58c.17,9.81,2.47,18.61,5.62,28m1-12.89-2.74,7.07L229,114.64m6.76-11-3.52,5.47-4.58-1.77M242,128.84c6.4-12.58,5.33-25.15-1.93-37.69m-9.38,36.29c-9.28-7.56-11.67-16.88-10.26-26.93m6.91-17.75a34.82,34.82,0,0,0-4.13,16.67m19.68,52.93c0,5.87.24,11.7-1.6,17.42s-7.34,10.69-9.21,16.09M250,153.19c2.05,14.15-3.07,26.28-11.27,31.8m-16.35-30.64a48,48,0,0,0,2.06,21.87M237.7,156c-4.44,9.38-7.51,19.56-7.5,29.42m1.47-25.06a13.57,13.57,0,0,0,1.57,6.83,21.21,21.21,0,0,0,5-5.6m-9.22,6.58a15.73,15.73,0,0,0,2.2,6.23,19.23,19.23,0,0,0,5.25-4.45m-8.69,6.87a20.39,20.39,0,0,0,2.35,5.91,9.26,9.26,0,0,0,4-5.5m-14.67-21.88,2.2,4.31,3-4.27m-5.76,6.87,3.33,3.32,2-4.72m-5,8.31,3.61,1.89a14.34,14.34,0,0,0,1.34-3.79m-.2,8.43-4-3m26-18.7a45.35,45.35,0,0,1-4.27,15.27m5.68-10-3,3.48m1.23,4.88-4.4,3m1.49,4.57-6,3.13m18.7-27a42.69,42.69,0,0,1-5.76,16.45m6-8.76-3,2.8-.07-5.19m1.8,9.67-5.6,4.53m2,4.29-5.06,2.79m-8.74-28.28a15.9,15.9,0,0,0-4.46,4.43m3.33-20.15.28-4.76c-14.14-11.42-16.39-26.41-8.14-40.37,8,3.17,13.19,10.91,14.26,18.5s-3,13.93-4.26,22.36m-8,28a29.89,29.89,0,0,0-5.16,13.28c-.74,4.92.78,10.77,2.07,15a74.75,74.75,0,0,1-6.63,8.08" fill="none" stroke="#daba64" stroke-linecap="round" stroke-linejoin="round" stroke-width="0.8" fill-rule="evenodd"/>
              </g>
              <path d="M237,134.48c4-10.29,14.17-19.17,12.06-30.86s-11.3-20-22.64-27.5c-.66,1.81-1.62,4.84-1.2,6.78-2-2.41-5.27-6.35-5.45-7.87-1.16-7.14,2-14.61-3.49-21.41S198.48,41.79,190.2,40.5a13.44,13.44,0,0,0,1.6,8.33q-5.41-3.2-13.75-3.32c1.72,4.49,4.06,8.33,7.74,10.76a19.9,19.9,0,0,0-10.89,1.51c1.31,2.83,3.74,5.26,8.63,6.8l-2.78,1.82c6,5.77,8.42,12.69,13.82,15.55s12.21.57,17.77.15l8.27.75c.82,10.27-10.15,23.84-6.19,32.6s12.51,12,17.38,20c-.29,6.13-1,12.2-1.32,18.33-1.07,1.26-1.69,2.58-2.76,3.84q-3-7.05-11.56-13.84c-1.46,8.54-3,18.73-2.1,25.88s5.27,9.63,8.49,14.4c-3.85,9.76-11.06,18.16-19,26.21,1,.6-.9,3,0,3.54.41.27,3.61-1.25,4.09-1a220.58,220.58,0,0,0,22.57-26.95c7.69.13,21-5.35,23.94-12.92s1.81-16.74,1.34-25.27l-7.84,5.79a15.56,15.56,0,0,0-1.31-6.63,14.23,14.23,0,0,0-5.51,5.6l-.26-7.66a13.34,13.34,0,0,0-5.55,4.9C235.71,144.52,236.3,139.61,237,134.48Z" fill="none" stroke="#daba64" stroke-linecap="round" stroke-linejoin="round" stroke-width="2.01" fill-rule="evenodd"/>
            </g>
            <circle cx="233.45" cy="190.85" r="4.15" transform="translate(16.76 400.54) rotate(-83.32)" fill="#e30613" stroke="#daba64" stroke-linecap="round" stroke-miterlimit="22.93" stroke-width="2.01"/>
            <circle cx="217.31" cy="185.41" r="4.15" transform="translate(7.89 379.69) rotate(-83.32)" fill="#e30613" stroke="#daba64" stroke-linecap="round" stroke-miterlimit="22.93" stroke-width="2.01"/>
            <circle cx="243.18" cy="136.55" r="4.15" transform="translate(79.27 362.2) rotate(-83.32)" fill="#e30613" stroke="#daba64" stroke-linecap="round" stroke-miterlimit="22.93" stroke-width="2.01"/>
            <circle cx="226.61" cy="137.38" r="4.15" transform="translate(63.81 346.48) rotate(-83.32)" fill="#e30613" stroke="#daba64" stroke-linecap="round" stroke-miterlimit="22.93" stroke-width="2.01"/>
            <circle cx="224.63" cy="72.33" r="4.15" transform="translate(17.51 185.43) rotate(-46.49)" fill="#e30613" stroke="#daba64" stroke-linecap="round" stroke-miterlimit="22.93" stroke-width="2.01"/>
            <circle cx="215.18" cy="87.38" r="4.15" transform="translate(3.65 183.26) rotate(-46.48)" fill="#e30613" stroke="#daba64" stroke-linecap="round" stroke-miterlimit="22.93" stroke-width="2.01"/>
          </g>
          <g>
            <path d="M44.37,172.84c-7.24-8.53-9.12-14-10.58-19.24S28.33,144,23.66,135.31c1.88.27,4.31,1.09,6.19,1.36-3.32-5-4.22-10.62-4.38-15.64a26.87,26.87,0,0,1,5.43,9.66c-1-7-3.81-14.08-6.84-21.12a65.74,65.74,0,0,1,19,22.29L36.93,92.46c-.9.8-2.35,3.46-4,5.37-1.87-6.69-.88-12.63,4-16,4.18,2.68,9.5,17.94,11.28,29.14.24-11.75.36-24,3.51-35.26S62.4,55,72.63,46.27L68.28,57.86A62.5,62.5,0,0,1,90.84,35.5l-8.07,18c6.47-4.24,14.58-6.52,23.81-7.45C104,49.75,100.16,54.17,95.4,56.2c4.35.69,9.31.14,13.66.83-7,3.66-15.14,8.06-21.74,10.76s-11.45,3.66-17.59,5.38c-5.28,5.55-9,11.28-9.32,17.39,3.73-6.24,10.54-14.65,18-16.12-5.67,7.84-10.74,17.81-14,25s-5.88,12.31-8.82,18.47C60.46,113,66.05,109,70.91,104.05,63.79,117.73,58.16,130.2,55,143.38a49.6,49.6,0,0,1,15.94-18.93A154.39,154.39,0,0,0,61.48,155c2.48-6.32,7.34-11.1,11.85-12.85-8.72,15.26-7.57,32.89.47,50,4.34,5.5,9.24,12.68,13.59,18.19l-5,5.09c-3.52-4.2-21.84-18.75-27.09-23.4s-8.38-10-12.66-13.37c-1.63.61-1.72,2.63-3.44,5-3.19-4.37-3.94-10.45-2.09-11.83S41.11,171.92,44.37,172.84Z" fill="#007739" fill-rule="evenodd"/>
            <g clip-path="url(#clip-path-2)">
              <path d="M65.5,59.19a89,89,0,0,0-10,22.31M83.2,47.39a115.72,115.72,0,0,1-13.83,17m31.72-4.43c-7.59,1.23-14.54,3.81-19.18,7M61.74,141.09c-5.68,12.88-3.56,25.38.75,37.77M44,133.05c4.7,8,7,19.82,7.67,24.68m-20-26a186.35,186.35,0,0,0,31.75,55.68m-.63-31.81C59.52,172,62.6,188,74.07,203.56A222.72,222.72,0,0,0,45,173.87m-8.88-45.15C41.84,140.8,50.65,163,54.64,175.05c-6-19.24-5.58-46.11,9-60.27M61.3,91.53c-6.86,16.31-9.11,33-10.41,49.79-2.31-17.65-6-35-12-51.69m45.2-35.41c-11.48,9.94-19.5,21-26.55,32.46A81.28,81.28,0,0,1,68.82,59.19m27.66-2c-11,3.2-18.91,8.4-28.4,14.57" fill="none" stroke="#daba64" stroke-linecap="round" stroke-linejoin="round" stroke-width="0.8" fill-rule="evenodd"/>
            </g>
            <path d="M44.37,172.84c-7.24-8.53-9.12-14-10.58-19.24S28.33,144,23.66,135.31c1.88.27,4.31,1.09,6.19,1.36-3.32-5-4.22-10.62-4.38-15.64a26.87,26.87,0,0,1,5.43,9.66c-1-7-3.81-14.08-6.84-21.12a65.74,65.74,0,0,1,19,22.29L36.93,92.46c-.9.8-2.35,3.46-4,5.37-1.87-6.69-.88-12.63,4-16,4.18,2.68,9.5,17.94,11.28,29.14.24-11.75.36-24,3.51-35.26S62.4,55,72.63,46.27L68.28,57.86A62.5,62.5,0,0,1,90.84,35.5l-8.07,18c6.47-4.24,14.58-6.52,23.81-7.45C104,49.75,100.16,54.17,95.4,56.2c4.35.69,9.31.14,13.66.83-7,3.66-15.14,8.06-21.74,10.76s-11.45,3.66-17.59,5.38c-5.28,5.55-9,11.28-9.32,17.39,3.73-6.24,10.54-14.65,18-16.12-5.67,7.84-10.74,17.81-14,25s-5.88,12.31-8.82,18.47C60.46,113,66.05,109,70.91,104.05,63.79,117.73,58.16,130.2,55,143.38a49.6,49.6,0,0,1,15.94-18.93A154.39,154.39,0,0,0,61.48,155c2.48-6.32,7.34-11.1,11.85-12.85-8.72,15.26-7.57,32.89.47,50,4.34,5.5,9.24,12.68,13.59,18.19l-5,5.09c-3.52-4.2-21.84-18.75-27.09-23.4s-8.38-10-12.66-13.37c-1.63.61-1.72,2.63-3.44,5-3.19-4.37-3.94-10.45-2.09-11.83S41.11,171.92,44.37,172.84Z" fill="none" stroke="#daba64" stroke-linecap="round" stroke-linejoin="round" stroke-width="2.01" fill-rule="evenodd"/>
          </g>
          <g>
            <path d="M68.65,202.77c-6.94-.13-13.72-.14-20.51-.2,6.44,9.1,10.26,13.53,18.21,22.26C75.37,220.15,88,217.67,97,213a167.13,167.13,0,0,1-22-25.39C72.79,192.42,70.87,198,68.65,202.77Z" fill="#e30613" stroke="#daba64" stroke-linecap="round" stroke-miterlimit="22.93" stroke-width="2.07" fill-rule="evenodd"/>
            <path d="M214.39,202.77c6.94-.13,13.72-.14,20.51-.2-6.44,9.1-10.26,13.53-18.21,22.26-9-4.67-21.64-7.15-30.65-11.82a167.11,167.11,0,0,0,22-25.39C210.26,192.42,212.17,198,214.39,202.77Z" fill="#e30613" stroke="#daba64" stroke-linecap="round" stroke-miterlimit="22.93" stroke-width="2.07" fill-rule="evenodd"/>
            <g>
              <path d="M141.52,259.78c-31.87,0-60.64-14.71-80.67-38l21.59-16.13c15.09,16.83,36,27.27,59.08,27.27s44-10.45,59.08-27.27l21.59,16.13C202.16,245.07,173.39,259.78,141.52,259.78Z" fill="#e30613" fill-rule="evenodd"/>
              <g clip-path="url(#clip-path-3)">
                <g>
                  <polygon points="131.63 227.44 152.14 227.44 157.12 270.94 126.65 270.94 131.63 227.44" fill="#fff" stroke="#daba64" stroke-miterlimit="22.93" stroke-width="2.21" fill-rule="evenodd"/>
                  <path d="M71,221.21l6.13-6.61,1.91,1.67-3,5.09,4.9-3.46,1.91,1.67-6.13,6.61-1.21-1.06L81,219.28,74.26,224l-.78-.68,4.17-7-5.41,5.89L71,221.21Zm7.22,6.12,1.33,1,5.77-6.91-1.33-1-5.77,6.91Zm2.74,2.1,1.3.92L86,225.27l-1.83,6.41,1.41,1L91,225.48l-1.3-.92L86,229.62l1.84-6.39-1.42-1L81,229.42Zm6.25,4.22,5-7.46,1.43.9-5,7.46-1.43-.9Zm4.48-.9,1.46.85-.3.49a2.08,2.08,0,0,0-.41,1.06.8.8,0,0,0,.47.62,1.17,1.17,0,0,0,.85.18,1.07,1.07,0,0,0,.66-.53,1.18,1.18,0,0,0,.19-.68,3.34,3.34,0,0,0-.34-1.06l-.43-1a5,5,0,0,1-.57-1.8,2.35,2.35,0,0,1,.4-1.22,2.37,2.37,0,0,1,1.52-1.16,2.68,2.68,0,0,1,2,.4,2.54,2.54,0,0,1,1.31,1.55,2.6,2.6,0,0,1-.45,2l-.11.17-.07.1L96.49,232l.12-.2a1.69,1.69,0,0,0,.34-1,.92.92,0,0,0-.52-.67.88.88,0,0,0-.68-.12.91.91,0,0,0-.55.44c-.2.32-.12.85.24,1.59v0l.48,1a4.22,4.22,0,0,1,.52,1.73,2.75,2.75,0,0,1-.47,1.43,2.52,2.52,0,0,1-1.61,1.25,2.91,2.91,0,0,1-2.1-.46,2.64,2.64,0,0,1-1.39-1.62,2.91,2.91,0,0,1,.54-2.15l.28-.41,0,0Zm5.66,6.75,1.51.78,3.59-6.56,1.73.89.71-1.3-5-2.57-.71,1.29,1.73.89L97.4,239.5Zm4.43,2.1,4-8,4.23,2-.67,1.33-2.71-1.28-.93,1.85,2.52,1.19-.64,1.27-2.52-1.19L104,241l2.77,1.31-.68,1.35-4.3-2Zm9.33-1.54.9.37a1.46,1.46,0,0,0,1.06.13,1.49,1.49,0,0,0,.68-.84,1.15,1.15,0,0,0,.08-1,1.78,1.78,0,0,0-.95-.68l-.77-.32-1,2.32Zm-3.58,4.1,1.52.63,1.57-3.59.54.22a2.2,2.2,0,0,1,1.15.79,1.34,1.34,0,0,1-.12,1.11l-.1.22-.35.87c-.14.34-.24.61-.3.81a2.79,2.79,0,0,0-.11.53l1.86.77a1.32,1.32,0,0,1-.1-.61,3,3,0,0,1,.21-.79l.43-1.1,0-.11q.63-1.57-.36-2.31a1.34,1.34,0,0,0,1.12-.17,2.55,2.55,0,0,0,.85-1.13,2.26,2.26,0,0,0,.16-1.87,2.88,2.88,0,0,0-1.62-1.26L111.15,236l-3.58,8.19Zm6.87,2.55,3-8.41,1.61.54-3,8.41-1.61-.54Zm6-2.77a8.53,8.53,0,0,0-.48,2.73,1,1,0,0,0,.79.79,1,1,0,0,0,1.08-.3,8.78,8.78,0,0,0,1-2.61,8.68,8.68,0,0,0,.49-2.75,1,1,0,0,0-.78-.79,1,1,0,0,0-1.09.3,8.75,8.75,0,0,0-1,2.62Zm-1.68-.44a14.85,14.85,0,0,0-.47,2.22,3.17,3.17,0,0,0,.07,1.34,2.29,2.29,0,0,0,.69,1.07,3.43,3.43,0,0,0,1.34.62,3.48,3.48,0,0,0,1.48.11,2.44,2.44,0,0,0,1.15-.6,3.45,3.45,0,0,0,.75-1.14,14.93,14.93,0,0,0,.73-2.14,15.09,15.09,0,0,0,.47-2.21,3.28,3.28,0,0,0-.07-1.35,2.33,2.33,0,0,0-.69-1.08,3.4,3.4,0,0,0-1.34-.62,3.45,3.45,0,0,0-1.48-.12,2.4,2.4,0,0,0-1.15.6,3.27,3.27,0,0,0-.75,1.12A14.9,14.9,0,0,0,118.79,243.51Z" fill="#daba64" stroke="#daba64" stroke-miterlimit="22.93" stroke-width="0.21" fill-rule="evenodd"/>
                  <path d="M137.65,249.26h.76a2.79,2.79,0,0,0,.81-.08.71.71,0,0,0,.37-.28,2.36,2.36,0,0,0,.34-.95A13,13,0,0,0,140,246a10.57,10.57,0,0,0-.12-1.88,1.77,1.77,0,0,0-.4-.89.8.8,0,0,0-.38-.21,3.17,3.17,0,0,0-.74-.06h-.73v6.28ZM136,250.57v-8.89h2.74a5.15,5.15,0,0,1,1.34.14,1.87,1.87,0,0,1,.82.45,2.49,2.49,0,0,1,.68,1.15,8.56,8.56,0,0,1,.2,2.16,17.85,17.85,0,0,1-.14,2.68,3.93,3.93,0,0,1-.47,1.33,1.71,1.71,0,0,1-.88.77,6.1,6.1,0,0,1-1.95.22Zm7.49,0v-8.89h4.71v1.48h-3v2.06H148v1.41h-2.8v2.45h3.08v1.5Z" fill="#daba64" stroke="#daba64" stroke-miterlimit="22.93" stroke-width="0.21" fill-rule="evenodd"/>
                  <path d="M165.27,245.69l.71-.24a2.75,2.75,0,0,0,.74-.33.69.69,0,0,0,.25-.38,2.36,2.36,0,0,0,0-1,13.22,13.22,0,0,0-.55-1.86,10.74,10.74,0,0,0-.74-1.74,1.81,1.81,0,0,0-.68-.71.81.81,0,0,0-.43-.08,3.11,3.11,0,0,0-.72.17l-.69.23,2.11,5.94Zm-1.14,1.77-3-8.41,2.59-.87a5.17,5.17,0,0,1,1.31-.29,1.9,1.9,0,0,1,.92.17,2.56,2.56,0,0,1,1,.87,8.7,8.7,0,0,1,.91,2,18,18,0,0,1,.77,2.57,3.91,3.91,0,0,1,0,1.41,1.66,1.66,0,0,1-.57,1,6,6,0,0,1-1.77.82l-2.22.74Zm8-2.65,4.4-1.81-.6-1.38-2.84,1.17-1-2.25,2.58-1.06-.57-1.3-2.58,1.06-.83-1.89,2.77-1.14-.6-1.36-4.33,1.78,3.58,8.19Zm6.9-2.75-4-8,4.3-2,.66,1.31-2.77,1.31.95,1.89,2.61-1.24.64,1.28-2.61,1.24,1.77,3.52-1.54.73Zm6.46-3.23,4.18-2.25-.75-1.31-2.7,1.45L185,234.57l2.45-1.32-.7-1.23-2.45,1.32-1-1.8,2.63-1.42-.74-1.29-4.12,2.21,4.44,7.78Zm6.52-3.47-5-7.46,1.47-.93,5.49,4-3.53-5.19,1.35-.85,5,7.46-1.46.92-5.51-4,3.53,5.2-1.35.85Zm5.24-7.07,0,0,.28.41A3.07,3.07,0,0,0,199.4,230a3.35,3.35,0,0,0,3.33-2.31,2.4,2.4,0,0,0-.55-1.92,2.87,2.87,0,0,0-1.18-1,4.58,4.58,0,0,0-1.84-.21l-1.13,0h0q-1.26,0-1.6-.4a.87.87,0,0,1-.2-.66.84.84,0,0,1,.38-.56,1,1,0,0,1,.84-.2,1.77,1.77,0,0,1,.82.7l.14.19,1.31-.92-.07-.1-.12-.16a2.74,2.74,0,0,0-1.72-1.18,2.66,2.66,0,0,0-2,.57,2.54,2.54,0,0,0-1.14,1.59,2.27,2.27,0,0,0,.51,1.81,2.45,2.45,0,0,0,1,.84,5.39,5.39,0,0,0,1.92.2h1.07a3.62,3.62,0,0,1,1.13.11,1.23,1.23,0,0,1,.57.44,1,1,0,0,1,.25.8,1.11,1.11,0,0,1-.51.69.84.84,0,0,1-.77.18,2.16,2.16,0,0,1-.85-.78l-.35-.46-1.38,1Zm7.3-6.05-2-3.24,3.11,2.3-1.08.94Zm.64,4.24-4.6-7.95,1.7-1.49,7.68,5.26-1.37,1.19-1.88-1.37-1.46,1.28,1.21,1.95Z" fill="#daba64" stroke="#daba64" stroke-miterlimit="22.93" stroke-width="0.21" fill-rule="evenodd"/>
                </g>
              </g>
              <path d="M141.52,259.78c-31.87,0-60.64-14.71-80.67-38l21.59-16.13c15.09,16.83,36,27.27,59.08,27.27s44-10.45,59.08-27.27l21.59,16.13C202.16,245.07,173.39,259.78,141.52,259.78Z" fill="none" stroke="#daba64" stroke-linecap="round" stroke-miterlimit="22.93" stroke-width="2.07" fill-rule="evenodd"/>
            </g>
          </g>
          <path d="M141.77,146.65l26,9.54,2.25-4.78,3,.79c1.07-2.12,2.14-4.25,3.19-6.39l2.38.31c.86-2.46,1.71-4.93,2.55-7.4l2.61.54,4.56-6.73,1.74.07c1.29-1.93,2.55-3.85,3.83-5.8l6-.19c1.56-2.38,3.09-4.75,4.61-7.14l1.52-.09,3-5.64,2.06-.29c1.63-2.29,3.26-4.57,4.86-6.85L196,108.78c1.35-1.55,2.68-3.1,4-4.65q12.73-1.71,25.41-3.44c1.33-2.54,2.66-5.09,4-7.64l1.5-.11c1.61-2.43,3.17-4.86,4.73-7.3l1.95-.52q5.66-7.08,11.29-14.18-26.74,11.27-53.52,22.52L141.77,116Q115,104.72,88.21,93.47L34.61,70.94c3.81,4.75,7.63,9.48,11.4,14.2l1.95.52c1.59,2.44,3.15,4.87,4.71,7.29l1.5.11c1.33,2.56,2.66,5.1,4,7.64l25.39,3.43,4,4.65-19.88-2.17c1.63,2.28,3.26,4.56,4.86,6.85l2.06.29,3,5.64,1.52.09c1.54,2.38,3.06,4.76,4.59,7.12l6,.2,3.86,5.79,1.74-.07,4.56,6.73,2.61-.54c.86,2.47,1.71,4.94,2.55,7.4l2.38-.31c1.07,2.13,2.14,4.26,3.19,6.39l3-.79,2.25,4.78Z" fill="#f9e093" stroke="#f9e093" stroke-linecap="round" stroke-linejoin="round" stroke-width="2.3" fill-rule="evenodd"/>
          <g>
            <path d="M141.77,146.65l26,9.54,2.25-4.78,3,.79c1.07-2.12,2.14-4.25,3.19-6.39l2.38.31c.86-2.46,1.71-4.93,2.55-7.4l2.61.54,4.56-6.73,1.74.07c1.29-1.93,2.55-3.85,3.83-5.8l6-.19c1.56-2.38,3.08-4.75,4.61-7.14l1.52-.09,3-5.64,2.06-.29c1.63-2.29,3.26-4.57,4.86-6.85L196,108.78c1.35-1.55,2.68-3.1,4-4.65q12.73-1.71,25.41-3.44c1.33-2.54,2.66-5.09,4-7.64l1.5-.11c1.61-2.43,3.17-4.86,4.73-7.3l1.95-.52q5.66-7.08,11.29-14.18-26.74,11.27-53.52,22.52L141.77,116Q115,104.72,88.21,93.47L34.61,70.94c3.81,4.75,7.63,9.48,11.4,14.2l1.95.52c1.59,2.44,3.15,4.87,4.71,7.29l1.5.11c1.33,2.56,2.66,5.1,4,7.64l25.39,3.43,4,4.65-19.88-2.17c1.63,2.28,3.26,4.56,4.86,6.85l2.06.29,3,5.64,1.52.09c1.54,2.38,3.06,4.76,4.59,7.12l6,.2,3.86,5.79,1.74-.07,4.56,6.73,2.61-.54c.86,2.47,1.71,4.94,2.55,7.4l2.38-.31c1.07,2.13,2.14,4.26,3.19,6.39l3-.79,2.25,4.78Z" fill="#daba64" fill-rule="evenodd"/>
            <g clip-path="url(#clip-path-4)">
              <path d="M56.62,80.49,73.84,101l28.26,4.7,32.73,38.58M62,87.48l-14-1.92m19.72,9.26L54.13,93m41.59,39.59,13-1.38L88,108.9m3.88,4.84-17.35-.22m23.27,6.39-18.73-.52m24.48,6.54-14.15.59m4.81-20.62L131,146.63m-28.54-7.74,18.4-3.55M107.34,145.9,126,141.44m-12.76,10.11,17-6m96.54-65L209,101.16l-26.74,4-33.67,39.06m72.79-56.76,14-1.92m-19.72,9.26L229.33,93m-41.59,39.59-14.39-1.66L196,108.79m-4.89,5,17.77-.22m-24.24,6.39,19.7-.52m-25.87,6.54,15.54.59m-4.81-20.62-36.81,40.72m28.54-7.74-18.4-3.55m13.58,10.57-18.68-4.46m12.76,10.11-17-6" fill="none" stroke="#f9e093" stroke-miterlimit="22.93" stroke-width="0.8" fill-rule="evenodd"/>
            </g>
          </g>
          <path d="M141.52,34.15a35.5,35.5,0,0,1,4.78,12.16l0,142.09h7.81a3.92,3.92,0,0,1,3.34-2,4.59,4.59,0,0,1,0,9.11l-9.25,0c0,9.17,0,18.57,0,27.73-.17,2.6-3.13,5.14-6.68,5.14s-6.51-2.54-6.67-5.14c0-9.16,0-18.55,0-27.73l-9.25,0a4.59,4.59,0,0,1,0-9.11,3.92,3.92,0,0,1,3.34,2h7.81l0-142.09A35.5,35.5,0,0,1,141.52,34.15Z" fill="none" stroke="#f9e093" stroke-linecap="round" stroke-linejoin="round" stroke-width="2.01" fill-rule="evenodd"/>
          <g>
            <path d="M141.52,34.15a35.5,35.5,0,0,1,4.78,12.16l0,142.09h7.81a3.92,3.92,0,0,1,3.34-2,4.59,4.59,0,0,1,0,9.11l-9.25,0c0,9.17,0,18.57,0,27.73-.17,2.6-3.13,5.14-6.68,5.14s-6.51-2.54-6.67-5.14c0-9.16,0-18.55,0-27.73l-9.25,0a4.59,4.59,0,0,1,0-9.11,3.92,3.92,0,0,1,3.34,2h7.81l0-142.09A35.5,35.5,0,0,1,141.52,34.15Z" fill="#daba64" fill-rule="evenodd"/>
            <g clip-path="url(#clip-path-5)">
              <g>
                <path d="M133.73,203l12.76-5.83m-12.76,11,15.45-7.12m-15.45,12.31,15.45-7.12m-15.45,12.31,15.45-7.12m-15.45,12.31,15.45-7.12m-15.45,12.31,15.45-7.12" fill="none" stroke="#f9e093" stroke-miterlimit="22.93" stroke-width="1.4" fill-rule="evenodd"/>
                <line x1="141.51" y1="39.79" x2="141.51" y2="185.99" fill="none" stroke="#f9e093" stroke-miterlimit="22.93" stroke-width="0.8"/>
                <g>
                  <polygon points="118.44 181.46 132.44 188.24 148.78 188.24 163.94 181.46 163.94 196.07 118.44 196.07 118.44 181.46" fill="none" stroke="#f9e093" stroke-linecap="round" stroke-linejoin="round" stroke-width="1.5" fill-rule="evenodd"/>
                  <path d="M118.44,181.46l14,6.78h16.33l15.17-6.78v14.61h-45.5Z" fill="none" fill-rule="evenodd"/>
                </g>
              </g>
            </g>
          </g>
          <g>
            <path d="M109.43,86.67C114.57,91.31,184,155.4,189.14,160c3.21-1.19,4.94-3.31,5.37-6.19l-4.3,1a50.74,50.74,0,0,0,1.14-17.82c7.45,3,10.48,8.13,13,14.89a5.86,5.86,0,0,0-4,.6c1.25,8.08.24,16.16-2.6,24.5a57.21,57.21,0,0,1-25.52,2.49,5.24,5.24,0,0,0-.63,3.87c-7-2.43-13-5.82-16-13,8,.68,12.38.67,19.07-.6-.39,1.52-.69,2.61-1.07,4.13a7.74,7.74,0,0,0,6.45-5.16c-4.84-4.93-71.65-71.54-76.48-76.47Z" fill="#daba64" fill-rule="evenodd"/>
            <g clip-path="url(#clip-path-6)">
              <path d="M197.68,177l-84.27-80.9m83.25,50.69c1.16,8.52-.43,17.29-6.2,23.28-6.24,5.54-15.38,7.06-24.25,5.95m22.57-16.34A16.48,16.48,0,0,1,190.36,170a18.47,18.47,0,0,1-10.71-1.52" fill="none" stroke="#f9e093" stroke-miterlimit="22.93" stroke-width="1.21" fill-rule="evenodd"/>
            </g>
            <path d="M109.43,86.67C114.57,91.31,184,155.4,189.14,160c3.21-1.19,4.94-3.31,5.37-6.19l-4.3,1a50.74,50.74,0,0,0,1.14-17.82c7.45,3,10.48,8.13,13,14.89a5.86,5.86,0,0,0-4,.6c1.25,8.08.24,16.16-2.6,24.5a57.21,57.21,0,0,1-25.52,2.49,5.24,5.24,0,0,0-.63,3.87c-7-2.43-13-5.82-16-13,8,.68,12.38.67,19.07-.6-.39,1.52-.69,2.61-1.07,4.13a7.74,7.74,0,0,0,6.45-5.16c-4.84-4.93-71.65-71.54-76.48-76.47Z" fill="none" stroke="#daba64" stroke-linecap="round" stroke-linejoin="round" stroke-width="2.05" fill-rule="evenodd"/>
          </g>
          <g>
            <circle cx="103.82" cy="86.08" r="7.13" transform="translate(-30.46 98.62) rotate(-45)" fill="none" stroke="#f9e093" stroke-linecap="round" stroke-linejoin="round" stroke-width="2.01"/>
            <path d="M98.77,81a7.13,7.13,0,1,0,10.08,0A7.13,7.13,0,0,0,98.77,81Z" fill="#daba64" fill-rule="evenodd"/>
          </g>
          <polygon points="119.59 101.86 101.24 112.9 95.76 107.41 110.45 92.72 125.15 78.02 130.63 83.51 121.88 98.06 119.59 101.86" fill="none" stroke="#f9e093" stroke-linecap="round" stroke-linejoin="round" stroke-width="2.01" fill-rule="evenodd"/>
          <g>
            <polygon points="119.59 101.86 101.24 112.9 95.76 107.41 110.45 92.72 125.15 78.02 130.63 83.51 121.88 98.06 119.59 101.86" fill="#daba64" fill-rule="evenodd"/>
            <g clip-path="url(#clip-path-7)">
              <g>
                <rect x="101.21" y="102.16" width="2.21" height="10.38" transform="translate(-45.94 103.8) rotate(-45)" fill="#f9e093"/>
                <rect x="105.3" y="96.45" width="2.21" height="13.61" transform="translate(-41.85 105.49) rotate(-45)" fill="#f9e093"/>
                <rect x="123.71" y="79.66" width="2.21" height="10.38" transform="translate(-23.44 113.11) rotate(-45)" fill="#f9e093"/>
                <rect x="119.62" y="82.14" width="2.21" height="13.61" transform="translate(-27.53 111.41) rotate(-45)" fill="#f9e093"/>
              </g>
            </g>
          </g>
          <g>
            <circle cx="103.82" cy="86.08" r="2.15" transform="translate(-30.46 98.62) rotate(-45)" fill="#f9e093"/>
            <circle cx="115.31" cy="98.09" r="2" transform="translate(-35.58 110.29) rotate(-45.01)" fill="#f9e093" stroke="#daba64" stroke-miterlimit="22.93" stroke-width="0.25"/>
          </g>
          <g>
            <path d="M174.11,86.67C169,91.31,99.54,155.4,94.41,160c-3.21-1.19-4.94-3.31-5.37-6.19l4.3,1a50.74,50.74,0,0,1-1.14-17.82c-7.45,3-10.48,8.13-13,14.89a5.86,5.86,0,0,1,4,.6c-1.25,8.08-.24,16.16,2.6,24.5a57.21,57.21,0,0,0,25.52,2.49,5.24,5.24,0,0,1,.63,3.87c7-2.43,13-5.82,16-13-8,.68-12.38.67-19.07-.6.39,1.52.69,2.61,1.07,4.13a7.74,7.74,0,0,1-6.45-5.16c4.84-4.93,71.65-71.54,76.48-76.47Z" fill="#daba64" fill-rule="evenodd"/>
            <g clip-path="url(#clip-path-8)">
              <path d="M85.87,177l84.27-80.9M86.89,146.81c-1.16,8.52.43,17.29,6.2,23.28,6.25,5.54,15.38,7.06,24.25,5.95M94.77,159.7A16.48,16.48,0,0,0,93.19,170a18.47,18.47,0,0,0,10.71-1.52" fill="none" stroke="#f9e093" stroke-miterlimit="22.93" stroke-width="1.21" fill-rule="evenodd"/>
            </g>
            <path d="M174.11,86.67C169,91.31,99.54,155.4,94.41,160c-3.21-1.19-4.94-3.31-5.37-6.19l4.3,1a50.74,50.74,0,0,1-1.14-17.82c-7.45,3-10.48,8.13-13,14.89a5.86,5.86,0,0,1,4,.6c-1.25,8.08-.24,16.16,2.6,24.5a57.21,57.21,0,0,0,25.52,2.49,5.24,5.24,0,0,1,.63,3.87c7-2.43,13-5.82,16-13-8,.68-12.38.67-19.07-.6.39,1.52.69,2.61,1.07,4.13a7.74,7.74,0,0,1-6.45-5.16c4.84-4.93,71.65-71.54,76.48-76.47Z" fill="none" stroke="#daba64" stroke-linecap="round" stroke-linejoin="round" stroke-width="2.05" fill-rule="evenodd"/>
          </g>
          <g>
            <circle cx="179.73" cy="85.93" r="7.13" transform="translate(-8.12 152.26) rotate(-45)" fill="none" stroke="#f9e093" stroke-linecap="round" stroke-linejoin="round" stroke-width="2.01"/>
            <path d="M184.77,80.89a7.13,7.13,0,1,1-10.09,0A7.13,7.13,0,0,1,184.77,80.89Z" fill="#daba64" fill-rule="evenodd"/>
          </g>
          <polygon points="163.95 101.86 182.31 112.9 187.79 107.41 173.09 92.72 158.4 78.02 152.92 83.51 161.66 98.06 163.95 101.86" fill="none" stroke="#f9e093" stroke-linecap="round" stroke-linejoin="round" stroke-width="2.01" fill-rule="evenodd"/>
          <g>
            <polygon points="163.95 101.86 182.31 112.9 187.79 107.41 173.09 92.72 158.4 78.02 152.92 83.51 161.66 98.06 163.95 101.86" fill="#daba64" fill-rule="evenodd"/>
            <g clip-path="url(#clip-path-9)">
              <g>
                <rect x="176.04" y="106.25" width="10.38" height="2.21" transform="translate(-22.83 159.59) rotate(-45)" fill="#f9e093"/>
                <rect x="170.33" y="102.15" width="13.61" height="2.21" transform="translate(-21.13 155.49) rotate(-45)" fill="#f9e093"/>
                <rect x="153.54" y="83.75" width="10.38" height="2.21" transform="translate(-13.51 137.09) rotate(-45)" fill="#f9e093"/>
                <rect x="156.02" y="87.84" width="13.61" height="2.21" transform="translate(-15.2 141.18) rotate(-45)" fill="#f9e093"/>
              </g>
            </g>
          </g>
          <g>
            <circle cx="179.73" cy="86.08" r="2.15" transform="translate(-8.23 152.31) rotate(-45)" fill="#f9e093"/>
            <circle cx="168.23" cy="98.09" r="2" transform="translate(-20.09 147.67) rotate(-44.99)" fill="#f9e093" stroke="#daba64" stroke-miterlimit="22.93" stroke-width="0.25"/>
          </g>
          <g>
            <polygon points="141.61 165.01 137.24 155.7 134.28 159.35 133.26 154.72 129.72 157.86 129.42 153.13 125.43 155.7 125.83 150.96 116.14 154.46 119.63 144.79 114.95 145.27 117.5 141.28 112.77 140.99 115.92 137.44 111.28 136.43 114.92 133.37 105.59 128.99 114.92 124.61 111.28 121.54 115.92 120.53 112.77 116.98 117.5 116.69 114.95 112.7 119.63 113.18 116.14 103.52 125.83 107.01 125.43 102.27 129.42 104.84 129.72 100.11 133.26 103.25 134.28 98.62 137.24 102.27 141.61 92.96 145.97 102.27 148.94 98.62 149.95 103.25 153.5 100.11 153.8 104.84 157.79 102.27 157.38 107.01 167.08 103.52 163.58 113.18 168.26 112.7 165.71 116.69 170.44 116.98 167.3 120.53 171.94 121.54 168.3 124.61 177.63 128.99 168.3 133.37 171.94 136.43 167.3 137.44 170.44 140.99 165.71 141.28 168.26 145.27 163.58 144.79 167.08 154.46 157.38 150.96 157.79 155.7 153.8 153.13 153.5 157.86 149.95 154.72 148.94 159.35 145.97 155.7 141.61 165.01" fill="#daba64" fill-rule="evenodd"/>
            <g clip-path="url(#clip-path-10)">
              <g>
                <g>
                  <line x1="145.99" y1="155.75" x2="137.23" y2="101.88" fill="none" stroke="#f9e093" stroke-miterlimit="22.93" stroke-width="0.5"/>
                  <line x1="150.02" y1="154.78" x2="133.2" y2="102.85" fill="none" stroke="#f9e093" stroke-miterlimit="22.93" stroke-width="0.5"/>
                  <line x1="153.89" y1="153.18" x2="129.33" y2="104.45" fill="none" stroke="#f9e093" stroke-miterlimit="22.93" stroke-width="0.5"/>
                  <line x1="157.47" y1="151.01" x2="125.74" y2="106.62" fill="none" stroke="#f9e093" stroke-miterlimit="22.93" stroke-width="0.5"/>
                  <g>
                    <line x1="163.75" y1="144.76" x2="119.46" y2="112.87" fill="none" stroke="#f9e093" stroke-miterlimit="22.93" stroke-width="0.5"/>
                    <line x1="165.91" y1="141.22" x2="117.31" y2="116.4" fill="none" stroke="#f9e093" stroke-miterlimit="22.93" stroke-width="0.5"/>
                    <line x1="167.53" y1="137.31" x2="115.68" y2="120.32" fill="none" stroke="#f9e093" stroke-miterlimit="22.93" stroke-width="0.5"/>
                    <line x1="168.55" y1="133.12" x2="114.67" y2="124.51" fill="none" stroke="#f9e093" stroke-miterlimit="22.93" stroke-width="0.5"/>
                    <line x1="168.53" y1="124.4" x2="114.68" y2="133.23" fill="none" stroke="#f9e093" stroke-miterlimit="22.93" stroke-width="0.5"/>
                    <line x1="167.52" y1="120.24" x2="115.7" y2="137.39" fill="none" stroke="#f9e093" stroke-miterlimit="22.93" stroke-width="0.5"/>
                    <line x1="165.91" y1="116.38" x2="117.31" y2="141.25" fill="none" stroke="#f9e093" stroke-miterlimit="22.93" stroke-width="0.5"/>
                    <line x1="163.74" y1="112.86" x2="119.48" y2="144.77" fill="none" stroke="#f9e093" stroke-miterlimit="22.93" stroke-width="0.5"/>
                  </g>
                  <line x1="157.53" y1="106.66" x2="125.69" y2="150.97" fill="none" stroke="#f9e093" stroke-miterlimit="22.93" stroke-width="0.5"/>
                  <line x1="153.91" y1="104.46" x2="129.3" y2="153.17" fill="none" stroke="#f9e093" stroke-miterlimit="22.93" stroke-width="0.5"/>
                  <line x1="150.04" y1="102.88" x2="133.17" y2="154.75" fill="none" stroke="#f9e093" stroke-miterlimit="22.93" stroke-width="0.5"/>
                  <line x1="146.01" y1="101.9" x2="137.2" y2="155.73" fill="none" stroke="#f9e093" stroke-miterlimit="22.93" stroke-width="0.5"/>
                </g>
                <g>
                  <line x1="166.82" y1="154.02" x2="116.4" y2="103.6" fill="none" stroke="#f9e093" stroke-miterlimit="22.93"/>
                  <line x1="177.27" y1="128.81" x2="105.95" y2="128.81" fill="none" stroke="#f9e093" stroke-miterlimit="22.93"/>
                  <line x1="166.82" y1="103.6" x2="116.4" y2="154.02" fill="none" stroke="#f9e093" stroke-miterlimit="22.93"/>
                  <line x1="141.61" y1="93.16" x2="141.61" y2="164.47" fill="none" stroke="#f9e093" stroke-miterlimit="22.93"/>
                </g>
                <circle cx="141.56" cy="128.2" r="14.34" fill="#f9e093" stroke="#f9e093" stroke-miterlimit="22.93" stroke-width="0.57"/>
                <polygon points="142.62 141.35 141.55 141.03 141.55 137.35 142.62 141.35" fill="#daba64" stroke="#daba64" stroke-miterlimit="22.93" stroke-width="0.47" fill-rule="evenodd"/>
                <g>
                  <path d="M141.55,137.35c-.73,1.75-2.65,2.21-4.43,2.29a4.5,4.5,0,0,1-3.77-2.27c-1.77-2.47-1.64-6.73-1.62-16.3l7.79,9.78Z" fill="none" stroke="#daba64" stroke-linecap="round" stroke-linejoin="round" stroke-width="0.99" fill-rule="evenodd"/>
                  <path d="M141.55,137.35c-.73,1.75-2.65,2.21-4.43,2.29a4.5,4.5,0,0,1-3.77-2.27c-1.77-2.47-1.64-6.73-1.62-16.3l7.79,9.78Z" fill="#e30613" fill-rule="evenodd"/>
                </g>
                <g>
                  <path d="M131.8,129.88a24.77,24.77,0,0,0,.7,5.73,7,7,0,0,0,1.31,2.23s.75-.29.93-.18.61-.42.85-.32.62-.5,1-.37.44-.65.75-.55.39-.16.58-.24L136,132.45a1.53,1.53,0,0,1-.92-.54c-.29-.44-.8-.08-1.09-.49s-.52-.12-1-.6S132.21,130.85,131.8,129.88Z" fill="none" stroke="#daba64" stroke-linecap="round" stroke-linejoin="round" stroke-width="0.99" fill-rule="evenodd"/>
                  <path d="M131.8,129.88a24.77,24.77,0,0,0,.7,5.73,7,7,0,0,0,1.31,2.23s.75-.29.93-.18.61-.42.85-.32.62-.5,1-.37.44-.65.75-.55.39-.16.58-.24L136,132.45a1.53,1.53,0,0,1-.92-.54c-.29-.44-.8-.08-1.09-.49s-.52-.12-1-.6S132.21,130.85,131.8,129.88Z" fill="#fff" fill-rule="evenodd"/>
                </g>
                <polygon points="135.23 125.3 132 121.18 131.7 121.22 135.3 125.77 135.23 125.3" fill="#daba64" stroke="#daba64" stroke-miterlimit="22.93" stroke-width="0.47" fill-rule="evenodd"/>
                <g>
                  <polygon points="137.28 124.27 137.32 127.44 134.14 122.44 134.36 119.7 137.28 124.27" fill="none" stroke="#daba64" stroke-linecap="round" stroke-linejoin="round" stroke-width="0.69" fill-rule="evenodd"/>
                  <path d="M137.28,124.27l0,3.18-3.18-5,.22-2.74Z" fill="#e30613" fill-rule="evenodd"/>
                </g>
                <g>
                  <path d="M134.16,122.32a.32.32,0,0,1,.54,0l.1.92,2.55,4.14-.32,2.26L134,124.9Z" fill="none" stroke="#daba64" stroke-linecap="round" stroke-linejoin="round" stroke-width="0.49" fill-rule="evenodd"/>
                  <path d="M134.16,122.32a.32.32,0,0,1,.54,0l.1.92,2.55,4.14-.32,2.26L134,124.9Z" fill="#fff" fill-rule="evenodd"/>
                </g>
                <g>
                  <path d="M137.08,129.68l-.14,2.4-2.36-3.66-.78-1.38,0-.48.15-1.82c.06-.36.8-.43,1,0l.24,2Z" fill="none" stroke="#daba64" stroke-linecap="round" stroke-linejoin="round" stroke-width="0.79" fill-rule="evenodd"/>
                  <path d="M137.08,129.68l-.14,2.4-2.36-3.66-.78-1.38,0-.48.15-1.82c.06-.36.8-.43,1,0l.24,2Z" fill="#e30613" fill-rule="evenodd"/>
                </g>
                <path d="M136.48,131.36a43.47,43.47,0,0,1-2.62-4.15c-.05-.09,0-.16,0-.26a.75.75,0,0,1,1.33-.35l-.77-6.89,1,7.26c-.52-.83-1.51-.51-1.41.15a33.13,33.13,0,0,0,2.64,4.07Z" fill="#f9e093" stroke="#daba64" stroke-linecap="round" stroke-linejoin="round" stroke-width="0.49" fill-rule="evenodd"/>
                <ellipse cx="134.42" cy="119.51" rx="0.24" ry="0.25" transform="translate(-3.8 4.42) rotate(-1.86)" fill="#daba64" stroke="#daba64" stroke-miterlimit="22.93" stroke-width="0.22"/>
                <polygon points="134.38 119.47 134.22 118.65 133.55 118.21 133.71 119.03 134.38 119.47" fill="#daba64" stroke="#daba64" stroke-linecap="round" stroke-linejoin="round" stroke-width="0.85" fill-rule="evenodd"/>
                <line x1="134.09" y1="119.74" x2="133.54" y2="127" fill="none" stroke="#daba64" stroke-miterlimit="22.93" stroke-width="0.39"/>
                <polygon points="140.48 141.35 141.55 141.03 141.55 137.35 140.48 141.35" fill="#daba64" stroke="#daba64" stroke-miterlimit="22.93" stroke-width="0.47" fill-rule="evenodd"/>
                <g>
                  <path d="M141.55,137.35c.73,1.75,2.65,2.21,4.43,2.29a4.5,4.5,0,0,0,3.77-2.27c1.77-2.47,1.64-6.73,1.62-16.3l-7.79,9.78Z" fill="#e30613" stroke="#daba64" stroke-linecap="round" stroke-linejoin="round" stroke-width="0.98" fill-rule="evenodd"/>
                  <path d="M141.55,137.35c.73,1.75,2.65,2.21,4.43,2.29a4.5,4.5,0,0,0,3.77-2.27c1.77-2.47,1.64-6.73,1.62-16.3l-7.79,9.78Z" fill="#e30613" fill-rule="evenodd"/>
                </g>
                <g>
                  <path d="M151.3,129.91a23,23,0,0,1-.68,5.52,7.76,7.76,0,0,1-1.3,2.39s-.75-.27-.93-.16-.61-.42-.85-.32-.62-.5-1-.37-.44-.65-.75-.55-.39-.16-.58-.24l1.93-3.73a1.52,1.52,0,0,0,.92-.54c.29-.44.8-.08,1.09-.49s.52-.12,1-.6S150.89,130.88,151.3,129.91Z" fill="none" stroke="#daba64" stroke-linecap="round" stroke-linejoin="round" stroke-width="0.99" fill-rule="evenodd"/>
                  <path d="M151.3,129.91a23,23,0,0,1-.68,5.52,7.76,7.76,0,0,1-1.3,2.39s-.75-.27-.93-.16-.61-.42-.85-.32-.62-.5-1-.37-.44-.65-.75-.55-.39-.16-.58-.24l1.93-3.73a1.52,1.52,0,0,0,.92-.54c.29-.44.8-.08,1.09-.49s.52-.12,1-.6S150.89,130.88,151.3,129.91Z" fill="#fff" fill-rule="evenodd"/>
                </g>
                <polygon points="147.92 125.3 151.16 121.18 151.46 121.22 147.85 125.77 147.92 125.3" fill="#daba64" stroke="#daba64" stroke-miterlimit="22.93" stroke-width="0.47" fill-rule="evenodd"/>
                <ellipse cx="151.38" cy="121.12" rx="0.25" ry="0.24" transform="translate(9.45 253.18) rotate(-81.6)" fill="#daba64" stroke="#daba64" stroke-miterlimit="22.93" stroke-width="0.22"/>
                <polygon points="151.39 121.05 151.64 120.26 152.36 119.9 152.11 120.69 151.39 121.05" fill="#daba64" stroke="#daba64" stroke-linecap="round" stroke-linejoin="round" stroke-width="0.85" fill-rule="evenodd"/>
                <g>
                  <polygon points="145.84 124.27 145.81 127.44 148.99 122.44 148.77 119.7 145.84 124.27" fill="none" stroke="#daba64" stroke-linecap="round" stroke-linejoin="round" stroke-width="0.69" fill-rule="evenodd"/>
                  <path d="M145.84,124.27l0,3.18,3.18-5-.22-2.74Z" fill="#e30613" fill-rule="evenodd"/>
                </g>
                <g>
                  <path d="M149,122.32a.32.32,0,0,0-.54,0l-.1.92-2.55,4.14.32,2.26,3.06-4.74Z" fill="none" stroke="#daba64" stroke-linecap="round" stroke-linejoin="round" stroke-width="0.49" fill-rule="evenodd"/>
                  <path d="M149,122.32a.32.32,0,0,0-.54,0l-.1.92-2.55,4.14.32,2.26,3.06-4.74Z" fill="#fff" fill-rule="evenodd"/>
                </g>
                <g>
                  <path d="M146,129.68l.14,2.4,2.36-3.66.78-1.38,0-.48-.15-1.82c-.06-.36-.8-.43-1,0l-.24,2Z" fill="none" stroke="#daba64" stroke-linecap="round" stroke-linejoin="round" stroke-width="0.49" fill-rule="evenodd"/>
                  <path d="M146,129.68l.14,2.4,2.36-3.66.78-1.38,0-.48-.15-1.82c-.06-.36-.8-.43-1,0l-.24,2Z" fill="#e30613" fill-rule="evenodd"/>
                </g>
                <path d="M146.64,131.36a43.55,43.55,0,0,0,2.62-4.15c.05-.09,0-.16,0-.26a.75.75,0,0,0-1.33-.35l.77-6.89-1,7.26c.52-.83,1.51-.51,1.41.15a33.15,33.15,0,0,1-2.64,4.07Z" fill="#f9e093" stroke="#daba64" stroke-linecap="round" stroke-linejoin="round" stroke-width="0.47" fill-rule="evenodd"/>
                <ellipse cx="148.77" cy="119.51" rx="0.25" ry="0.24" transform="translate(24.48 264.3) rotate(-88.13)" fill="#daba64" stroke="#daba64" stroke-miterlimit="22.93" stroke-width="0.29"/>
                <polygon points="148.78 119.47 148.94 118.65 149.61 118.21 149.45 119.03 148.78 119.47" fill="#daba64" stroke="#daba64" stroke-linecap="round" stroke-linejoin="round" stroke-width="0.85" fill-rule="evenodd"/>
                <path d="M149.36,127" fill="none" stroke="#daba64" stroke-miterlimit="22.93" stroke-width="0.22" fill-rule="evenodd"/>
                <path d="M148.81,119.76" fill="none" stroke="#daba64" stroke-miterlimit="22.93" stroke-width="0.22" fill-rule="evenodd"/>
                <path d="M141.54,137.36c.17-.32.55-.3.93-.38,2.39-.52,4.8-1,4.81-3.41,0-1.93-1.11-2.89-1.11-4.74a3.57,3.57,0,0,1,.93-2.85l-1.29-1.89a6.12,6.12,0,0,1-4.26,0,6.12,6.12,0,0,1-4.26,0L136,126a3.57,3.57,0,0,1,.93,2.85c0,1.84-1.11,2.81-1.11,4.74,0,2.46,2.42,2.9,4.81,3.41C141,137.06,141.36,137,141.54,137.36Z" fill="#daba64" stroke="#daba64" stroke-miterlimit="22.93" stroke-width="0.22" fill-rule="evenodd"/>
                <g>
                  <path d="M141.55,136.89a2.13,2.13,0,0,0-.93-.31c-2-.42-4.45-.9-4.44-3a8.31,8.31,0,0,1,.8-2.93h9.13a8.31,8.31,0,0,1,.8,2.93c0,2.1-2.4,2.58-4.44,3A2.13,2.13,0,0,0,141.55,136.89Z" fill="none" stroke="#daba64" stroke-linecap="round" stroke-linejoin="round" stroke-width="0.99" fill-rule="evenodd"/>
                  <path d="M141.55,136.89a2.13,2.13,0,0,0-.93-.31c-2-.42-4.45-.9-4.44-3a8.31,8.31,0,0,1,.8-2.93h9.13a8.31,8.31,0,0,1,.8,2.93c0,2.1-2.4,2.58-4.44,3A2.13,2.13,0,0,0,141.55,136.89Z" fill="#e30613" fill-rule="evenodd"/>
                </g>
                <path d="M141.36,130.28h-4.28a5.5,5.5,0,0,0,.2-1.46,3.91,3.91,0,0,0-.83-2.8l1-1.46a6.48,6.48,0,0,0,3.92,0Z" fill="#009fe3" stroke="#daba64" stroke-miterlimit="22.93" stroke-width="0.22" fill-rule="evenodd"/>
                <path d="M141.8,130.28h4.28a5.5,5.5,0,0,1-.2-1.46,3.91,3.91,0,0,1,.83-2.8l-1-1.46a6.48,6.48,0,0,1-3.92,0Z" fill="#fff" stroke="#daba64" stroke-miterlimit="22.93" stroke-width="0.22" fill-rule="evenodd"/>
                <path d="M141.76,130.24H146l-.14-.06-.09-.06-.06,0,0-.07-.06,0,0-.06-.08,0-.06-.09-.06.06-.06-.09,0,.07-.07-.11-.08.08,0-.1-.1.07,0-.09-.1.06-.05-.07-.09.07,0-.08-.07,0-.06-.07-.06.05-.07-.07-.06.07-.06-.09-.06.05-.65,0-.05-.06-.08,0-.07-.08,0,.08-.07-.06-.06.07-.06-.06-.06.07-.08-.06-.06.06-.06-.06-.07.1-.05-.08-.08.08-.05,0-.07.08-.07-.06,0,.08-.08,0-.06.08-.08,0-.06.08-.06-.06-.07.09-.05,0-.05.07Z" fill="#daba64" fill-rule="evenodd"/>
                <path d="M137.14,130.24h4.28l-.11-.18-.09-.06-.06,0,0-.07-.06,0,0-.06-.08,0,0-.06-.06.06-.06-.09,0,.07-.07-.11-.08.08,0-.1-.08.09,0-.08-.1.06-.05-.07-.09.07,0-.08-.08.1-.06-.07-.06.05-.09-.05-.06,0-.08,0-.06.05-.08-.08-.08.07-.08-.21-.08.2-.08-.09-.08.08-.08-.07-.08.06-.05-.06-.08,0-.07-.08,0,.08-.07-.06-.06.07-.06-.06-.06.07-.08-.06-.06.06-.06-.06-.07.1-.05-.08-.06.05-.07-.07-.08.07,0-.07-.07.09-.1-.09-.09.14-.08-.13-.06.1-.08-.1-.07.08-.07-.08-.11.13Z" fill="#daba64" fill-rule="evenodd"/>
                <path d="M140.14,127.76c0,.18-.14,1.2-.29,1.21,0,.17,0,.45,0,.57a.93.93,0,0,0,.07.31s.19,0,.16.16h-.24c-.1-.06,0-.24-.11-.22s-.07-.75-.07-.77,0,0,0-.11,0-.67,0-.94Z" fill="#daba64" fill-rule="evenodd"/>
                <path d="M140.34,125.83a.56.56,0,0,1,.08-.26.82.82,0,0,0,0,.32S140.36,125.86,140.34,125.83Z" fill="#daba64" fill-rule="evenodd"/>
                <path d="M138.79,128a1.41,1.41,0,0,1-.78,1c0,.16.06.44.06.55a.6.6,0,0,0,.05.28s.19,0,.14.13H138c-.09-.07,0-.23-.07-.22s0-.24-.13-.7a.13.13,0,0,1,0-.13,3.59,3.59,0,0,0,.22-.7c0-.17-.09-.15-.1-.67Z" fill="#daba64" fill-rule="evenodd"/>
                <path d="M138.24,129.08a1.47,1.47,0,0,0,.6-1.17,1.57,1.57,0,0,0,.73.06c0,.27,0,.88,0,.94s0,.06,0,.11,0,.79.07.77,0,.15.11.22H140c0-.12-.14-.12-.17-.16a.91.91,0,0,1-.07-.31c0-.12,0-.36,0-.53.15,0,.16-.91.19-1.09.69-.33.51-.75.48-1.62.19.09.26,0,.46,0,0,0,.06,0,.08,0s0,0,0,0,0,0,0-.05,0-.07-.06-.09,0,0,0-.06c-.32-.1-.09-.18-.51-.21,0-.11,0-.09,0-.24a.48.48,0,0,0-.13.29.49.49,0,0,0-.11.2c-.06.33,0,1,0,1.09s-.06,0-.55-.19a1.68,1.68,0,0,0-.6,0c-.15,0-.27,0-.51,0s-.14,0-.31.06a.46.46,0,0,0-.26.61.49.49,0,0,0,.19.19,2.82,2.82,0,0,0,.22.65,3.76,3.76,0,0,1-.22.58.13.13,0,0,0,0,.14c.21.43.19.68.24.67s0,.14.11.2h.24c0-.11-.14-.11-.17-.15a.6.6,0,0,1-.09-.27C138.37,129.5,138.25,129.24,138.24,129.08Z" fill="#daba64" fill-rule="evenodd"/>
                <ellipse cx="140.53" cy="126.01" rx="0.04" ry="0.02" fill="#daba64"/>
                <g>
                  <path d="M137.63,133.25a.34.34,0,0,1,.2-.49c-.06-.17.28-.49.48-.46,0-.36.45-.53.67-.44,0-.17.46-.26.59-.15.08-.19.45-.19.56-.06a.38.38,0,0,1,.58.08c.15-.19.55,0,.56.24.19-.18.43,0,.47.18a.3.3,0,0,1,.45.29.23.23,0,0,1,.34.21.21.21,0,0,1,.27.26c.06-.1.19.16.2.24.06-.1.24,0,.25.18,0-.08.17,0,.21.12,0-.08.17,0,.22.1.06-.07.15,0,.21.08,0-.08.2-.05.22,0a.1.1,0,0,1,.18,0c0-.08.09-.09.15,0s.07-.13.15-.09,0-.13.09-.11a.11.11,0,0,1,.05-.16s0-.12,0-.12-.07-.11,0-.13-.08-.09,0-.13a.08.08,0,0,1-.07-.12c-.06,0-.1,0-.07-.1s-.1,0-.09-.08-.08,0-.1-.05-.07,0-.09,0a.08.08,0,0,1-.1,0s-.06,0-.09,0,0,.05-.08,0a.21.21,0,0,1,0,.24.28.28,0,0,1-.36.16.35.35,0,0,1-.25-.38.53.53,0,0,1,.3-.43c0-.09.16-.12.22-.09a.13.13,0,0,1,.19,0,.13.13,0,0,1,.19,0,.13.13,0,0,1,.19,0,.17.17,0,0,1,.21.07.16.16,0,0,1,.21.11c.14-.05.26.13.24.23.12,0,.25.2.15.31a.2.2,0,0,1,.08.33.17.17,0,0,1,0,.28c.08.14,0,.19,0,.25a.25.25,0,0,1-.11.31.21.21,0,0,1-.17.25c0,.12-.11.23-.22.21s-.16.2-.28.14c0,.11-.19.19-.31.1,0,.1-.2.15-.32.09,0,.1-.28.08-.36,0-.06.1-.27.07-.34,0a.23.23,0,0,1-.35-.09.19.19,0,0,1-.3-.09.24.24,0,0,1-.34-.19.19.19,0,0,1-.28-.16c-.09.07-.21,0-.26-.13a.15.15,0,0,1-.22-.13.17.17,0,0,1-.25-.08c0,.08-.2.08-.21,0s-.19.09-.22,0a.15.15,0,0,1-.2.09c0,.09,0,.17-.08.19.07.06,0,.26-.09.23s-.09.05-.38,0a5.47,5.47,0,0,1-1-.18,4.28,4.28,0,0,1-1-.44A2.29,2.29,0,0,0,137.63,133.25Z" fill="#daba64" fill-rule="evenodd"/>
                  <g clip-path="url(#clip-path-11)">
                    <path d="M143.93,132.53a.46.46,0,0,0-.27-.41m.63.43a1.07,1.07,0,0,0,.17-.52m.1.75a2.06,2.06,0,0,0,.55-.34m-.45.72a.8.8,0,0,1,.68.21m-.76.07a1,1,0,0,1,.61.48m-1-.25a1.14,1.14,0,0,1,.31.85m-.63.19a1.26,1.26,0,0,0-.08-1.07m-1.27.84a1.5,1.5,0,0,0,.38-1.32m-1,1a1.57,1.57,0,0,0,.52-1.48m-1,1.21a2,2,0,0,0,.22-1.71m-1-.42a3.09,3.09,0,0,1,.34,2.06m-.41.08a4.48,4.48,0,0,0-1.06-2.16m3.88,1.74a1.57,1.57,0,0,1-.19,1.2m-5-2.36a4.32,4.32,0,0,1,2,1.87" fill="none" stroke="#daba64" stroke-miterlimit="22.93" stroke-width="0.34" fill-rule="evenodd"/>
                  </g>
                </g>
                <path d="M137.89,133c-.07,0-.13.12-.06.15s.29,0,.27-.05S138,133,137.89,133Z" fill="#f9e093" stroke="#daba64" stroke-miterlimit="22.93" stroke-width="0.43" fill-rule="evenodd"/>
                <polygon points="138.28 133.01 138.34 133.22 138.6 133.17 138.28 133.01" fill="#f9e093" stroke="#daba64" stroke-miterlimit="22.93" stroke-width="0.43" fill-rule="evenodd"/>
                <g>
                  <g>
                    <ellipse cx="142.92" cy="135.31" rx="0.26" ry="0.26" fill="#daba64"/>
                    <ellipse cx="142.53" cy="135.49" rx="0.26" ry="0.26" fill="#daba64"/>
                    <ellipse cx="142.26" cy="135.13" rx="0.3" ry="0.29" fill="#daba64"/>
                    <ellipse cx="141.93" cy="135.48" rx="0.3" ry="0.3" fill="#daba64"/>
                    <ellipse cx="141.58" cy="135.22" rx="0.33" ry="0.32" fill="#daba64"/>
                    <ellipse cx="141.36" cy="135.58" rx="0.27" ry="0.26" fill="#daba64"/>
                    <ellipse cx="140.91" cy="135.43" rx="0.33" ry="0.32" fill="#daba64"/>
                    <ellipse cx="141.21" cy="135.17" rx="0.33" ry="0.32" fill="#daba64"/>
                    <ellipse cx="140.38" cy="135.5" rx="0.33" ry="0.32" fill="#daba64"/>
                    <ellipse cx="139.77" cy="135.3" rx="0.33" ry="0.32" fill="#daba64"/>
                    <ellipse cx="140.17" cy="135.04" rx="0.33" ry="0.32" fill="#daba64"/>
                    <ellipse cx="140.61" cy="135.02" rx="0.29" ry="0.28" fill="#daba64"/>
                    <ellipse cx="139.26" cy="135.06" rx="0.33" ry="0.32" fill="#daba64"/>
                    <ellipse cx="138.93" cy="134.77" rx="0.29" ry="0.29" fill="#daba64"/>
                    <ellipse cx="138.4" cy="134.77" rx="0.3" ry="0.29" fill="#daba64"/>
                    <ellipse cx="138.64" cy="134.59" rx="0.3" ry="0.29" fill="#daba64"/>
                    <ellipse cx="138.09" cy="134.34" rx="0.33" ry="0.32" fill="#daba64"/>
                    <ellipse cx="139.05" cy="134.21" rx="0.33" ry="0.32" fill="#daba64"/>
                    <ellipse cx="139.29" cy="134.65" rx="0.33" ry="0.32" fill="#daba64"/>
                    <ellipse cx="139.75" cy="134.76" rx="0.31" ry="0.3" fill="#daba64"/>
                    <ellipse cx="140.21" cy="134.8" rx="0.27" ry="0.26" fill="#daba64"/>
                    <ellipse cx="141" cy="134.68" rx="0.29" ry="0.28" fill="#daba64"/>
                    <ellipse cx="141.7" cy="134.87" rx="0.3" ry="0.29" fill="#daba64"/>
                    <ellipse cx="139.85" cy="134.41" rx="0.28" ry="0.27" fill="#daba64"/>
                    <ellipse cx="139.42" cy="134.23" rx="0.28" ry="0.27" fill="#daba64"/>
                  </g>
                  <g>
                    <ellipse cx="137.98" cy="133.89" rx="0.33" ry="0.32" fill="#daba64"/>
                    <ellipse cx="137.77" cy="133.48" rx="0.28" ry="0.27" fill="#daba64"/>
                    <ellipse cx="138.54" cy="134.15" rx="0.33" ry="0.32" fill="#daba64"/>
                    <ellipse cx="138.57" cy="133.84" rx="0.28" ry="0.27" fill="#daba64"/>
                    <ellipse cx="139.02" cy="133.97" rx="0.28" ry="0.27" fill="#daba64"/>
                    <ellipse cx="138.17" cy="133.69" rx="0.28" ry="0.27" fill="#daba64"/>
                    <ellipse cx="138.14" cy="133.22" rx="0.28" ry="0.27" fill="#daba64"/>
                    <ellipse cx="139.42" cy="133.84" rx="0.28" ry="0.27" fill="#daba64"/>
                    <ellipse cx="139.85" cy="134.03" rx="0.28" ry="0.27" fill="#daba64"/>
                    <ellipse cx="138.6" cy="133.43" rx="0.28" ry="0.27" fill="#daba64"/>
                    <ellipse cx="138.97" cy="133.61" rx="0.28" ry="0.27" fill="#daba64"/>
                  </g>
                </g>
                <g>
                  <path d="M141.55,141.7c-1.28,0-1.28-.5-.65-.55,1-.09-.41-.39-.63-.39l1.28-3.4,1.29,3.4c-.22,0-1.6.3-.63.39C142.84,141.21,142.84,141.7,141.55,141.7Z" fill="none" stroke="#daba64" stroke-linecap="round" stroke-linejoin="round" stroke-width="0.99" fill-rule="evenodd"/>
                  <path d="M141.55,141.7c-1.28,0-1.28-.5-.65-.55,1-.09-.41-.39-.63-.39l1.28-3.4,1.29,3.4c-.22,0-1.6.3-.63.39C142.84,141.21,142.84,141.7,141.55,141.7Z" fill="#e30613" fill-rule="evenodd"/>
                </g>
                <polygon points="131.71 120.99 131.44 120.19 130.69 119.84 130.95 120.63 131.71 120.99" fill="#daba64" stroke="#daba64" stroke-linecap="round" stroke-linejoin="round" stroke-width="0.83" fill-rule="evenodd"/>
                <path d="M144.25,127.46l-.19.14c0,.06,0,.12,0,.18l-.23-.26-.37,0-.14.63-.1,0,.14.4.32.21.27-.08.3-.37,0-.16.09-.07,0-.44c.13,0,.16-.14.25-.15s0-.1,0-.2Z" fill="#daba64" fill-rule="evenodd"/>
                <path d="M143,127.14c.27.09.39.37.26.84A.82.82,0,0,1,143,127.14Z" fill="#daba64" fill-rule="evenodd"/>
                <path d="M143,126.84a.79.79,0,0,1,.6.81C143.35,127.63,143.13,127.44,143,126.84Z" fill="#daba64" fill-rule="evenodd"/>
                <path d="M142.64,126.55c0,.5.12.72.37.75A.67.67,0,0,0,142.64,126.55Z" fill="#daba64" fill-rule="evenodd"/>
                <path d="M143.47,125.95a.63.63,0,0,0,0,.8A.63.63,0,0,0,143.47,125.95Z" fill="#daba64" fill-rule="evenodd"/>
                <path d="M143.54,126.93a.71.71,0,0,0-.68-.59A.65.65,0,0,0,143.54,126.93Z" fill="#daba64" fill-rule="evenodd"/>
                <path d="M143.72,127.27a.67.67,0,0,0-.06-.88A.67.67,0,0,0,143.72,127.27Z" fill="#daba64" fill-rule="evenodd"/>
                <path d="M144,126.76c.18-.47.11-.73-.08-.91A1,1,0,0,0,144,126.76Z" fill="#daba64" fill-rule="evenodd"/>
                <path d="M144.43,125.89c0,.44-.14.77-.41.87A.82.82,0,0,1,144.43,125.89Z" fill="#daba64" fill-rule="evenodd"/>
                <path d="M144.22,127.13a1,1,0,0,0,.32-.95A1,1,0,0,0,144.22,127.13Z" fill="#daba64" fill-rule="evenodd"/>
                <path d="M143.8,127.74a.88.88,0,0,0-.35-.74A.65.65,0,0,0,143.8,127.74Z" fill="#daba64" fill-rule="evenodd"/>
                <path d="M144,127.6c.13-.18,0-.58-.17-.79A1,1,0,0,0,144,127.6Z" fill="#daba64" fill-rule="evenodd"/>
                <path d="M144,127.43a.64.64,0,0,0,.08-.71A.57.57,0,0,0,144,127.43Z" fill="#daba64" fill-rule="evenodd"/>
                <path d="M143.45,128.23a.87.87,0,0,1-.58.28A.5.5,0,0,1,143.45,128.23Z" fill="#daba64" fill-rule="evenodd"/>
                <path d="M144.15,128.33a.59.59,0,0,0,.74.23A.7.7,0,0,0,144.15,128.33Z" fill="#daba64" fill-rule="evenodd"/>
                <path d="M143.58,128.48a.5.5,0,0,1-.53.34A.59.59,0,0,1,143.58,128.48Z" fill="#daba64" fill-rule="evenodd"/>
                <path d="M144,128.57a.54.54,0,0,0,.74.28A.78.78,0,0,0,144,128.57Z" fill="#daba64" fill-rule="evenodd"/>
                <path d="M143.73,128.78c0,.31-.22.38-.55.26A1.36,1.36,0,0,1,143.73,128.78Z" fill="#daba64" fill-rule="evenodd"/>
                <path d="M143.65,128.62a.44.44,0,0,1-.54.31C143.24,128.66,143.43,128.55,143.65,128.62Z" fill="#daba64" fill-rule="evenodd"/>
                <path d="M143.9,128.73c.29.4.37.32.67.22A.53.53,0,0,0,143.9,128.73Z" fill="#daba64" fill-rule="evenodd"/>
                <path d="M143.5,128.3c.15,0,.25-.12.23-.25A.28.28,0,0,0,143.5,128.3Z" fill="#daba64" fill-rule="evenodd"/>
                <path d="M144.12,127.41c.11-.23.37-.25.64-.11A.51.51,0,0,1,144.12,127.41Z" fill="#daba64" fill-rule="evenodd"/>
                <path d="M144.52,128a.81.81,0,0,0,.29-.8A.66.66,0,0,0,144.52,128Z" fill="#daba64" fill-rule="evenodd"/>
                <path d="M144.35,128.15a.67.67,0,0,0-.07-.72C144.09,127.64,144.14,127.91,144.35,128.15Z" fill="#daba64" fill-rule="evenodd"/>
                <path d="M144.37,128.12c.21.28.46.3.75.06C144.82,128,144.52,127.94,144.37,128.12Z" fill="#daba64" fill-rule="evenodd"/>
                <path d="M144.57,127a.63.63,0,0,1,.61-.42A.51.51,0,0,1,144.57,127Z" fill="#daba64" fill-rule="evenodd"/>
                <path d="M144.58,127.95c.24.12.49.05.78-.24A.7.7,0,0,0,144.58,127.95Z" fill="#daba64" fill-rule="evenodd"/>
                <path d="M145,127.71c.17,0,.3-.1.37-.37A.37.37,0,0,0,145,127.71Z" fill="#daba64" fill-rule="evenodd"/>
                <path d="M144.57,127.92c0-.2,0-.42.62-.7C145,127.74,144.79,127.93,144.57,127.92Z" fill="#daba64" fill-rule="evenodd"/>
                <path d="M144.29,127.13a.51.51,0,0,1,.78.06A.82.82,0,0,1,144.29,127.13Z" fill="#daba64" fill-rule="evenodd"/>
                <path d="M144.27,127.14a.83.83,0,0,0,.58-.77C144.57,126.59,144.33,126.54,144.27,127.14Z" fill="#daba64" fill-rule="evenodd"/>
                <path d="M142.82,128.73a.55.55,0,0,0,.65-.33C143.25,128.3,143,128.4,142.82,128.73Z" fill="#daba64" fill-rule="evenodd"/>
                <path d="M144.73,128.69a.54.54,0,0,1-.64-.24A.56.56,0,0,1,144.73,128.69Z" fill="#daba64" fill-rule="evenodd"/>
                <path d="M143.31,128.17a.5.5,0,0,1-.69.18A.52.52,0,0,1,143.31,128.17Z" fill="#daba64" fill-rule="evenodd"/>
                <path d="M142.41,127.86c.39-.14.64-.08.74.13A.5.5,0,0,1,142.41,127.86Z" fill="#daba64" fill-rule="evenodd"/>
                <path d="M142.57,127.27a.72.72,0,0,1,.59.72C142.84,127.94,142.68,127.64,142.57,127.27Z" fill="#daba64" fill-rule="evenodd"/>
                <path d="M142.94,127.75l.52.68.17.17c0,.08,0,.16,0,.25a1.68,1.68,0,0,1,0,.76.81.81,0,0,1-.33.39h.34l.14-.11,0,.11.06-.11,0,.11.14,0,.12.09h0l.21,0c-.24-.2-.37-.33-.4-.49,0-.45-.06-.29-.07-.76,0-.07,0-.14.08-.21l.09-.07c.15-.15.29-.31.45-.48a.24.24,0,0,0,0-.1l-.27.24-.27.28c-.05,0-.12,0-.17,0l0-.14s-.07-.11-.1-.12a.61.61,0,0,1-.1.2c-.06,0-.05,0-.12,0C143.34,128.17,143.13,128,142.94,127.75Z" fill="#daba64" fill-rule="evenodd"/>
                <path d="M144,127.72s0,0,0-.06h-.05V128h-.13l0-.23-.13.1a2.66,2.66,0,0,0-.34-.61,2.43,2.43,0,0,1,.38.51l0,0a.21.21,0,0,0,0-.2c0-.22-.09-.46-.12-.69a3.44,3.44,0,0,1,.16.61h0a4.2,4.2,0,0,1,.2-.72c0,.22-.08.49-.13.71,0,.05,0,.07,0,.12s0,0,.06,0l.23-.37a1.93,1.93,0,0,1,.26-.34c-.08.13-.17.27-.23.38l-.21.42Z" fill="#daba64" fill-rule="evenodd"/>
                <path d="M144.21,128.3a.57.57,0,0,0-.28-.61A.51.51,0,0,0,144.21,128.3Z" fill="#daba64" fill-rule="evenodd"/>
                <path d="M143.33,128.18a.45.45,0,0,0,.13-.64A.55.55,0,0,0,143.33,128.18Z" fill="#daba64" fill-rule="evenodd"/>
                <path d="M143.83,128.08a.44.44,0,0,0-.16-.63A.55.55,0,0,0,143.83,128.08Z" fill="#daba64" fill-rule="evenodd"/>
                <g>
                  <path d="M138.28,121.29c.1-.21.34-.42.28-.52s-.1,0-.17-.08.08-.33,0-.39-.11,0-.19,0,0-.21-.17-.21-.09.15-.17.21-.11,0-.19,0,.07.28,0,.39-.1,0-.17.08.17.31.28.52Z" fill="#daba64" stroke="#daba64" stroke-miterlimit="22.93" stroke-width="0.5" fill-rule="evenodd"/>
                  <path d="M138.56,122.1c0-.24.21-.53.13-.6s-.08.06-.18,0,0-.34-.1-.37-.1.06-.19,0-.06-.19-.22-.13,0,.18-.1.26-.11,0-.17.11.14.24.1.37-.1,0-.14.13.25.23.4.38Z" fill="#daba64" stroke="#daba64" stroke-miterlimit="22.93" stroke-width="0.5" fill-rule="evenodd"/>
                  <path d="M139.09,122.52c0-.24,0-.59-.09-.61s-.06.1-.16.08-.13-.3-.22-.29-.07.11-.16.13-.12-.15-.24,0,0,.18,0,.29-.1.08-.12.19.21.15.22.29-.09.07-.08.19.3.08.5.15Z" fill="#daba64" stroke="#daba64" stroke-miterlimit="22.93" stroke-width="0.5" fill-rule="evenodd"/>
                  <path d="M139.67,122.94c-.1-.22-.12-.57-.23-.55s0,.11-.14.13-.19-.25-.28-.2,0,.13-.13.18-.15-.1-.24.08.06.17.06.28-.08.11-.07.22.24.07.28.2-.06.1,0,.21.31,0,.51,0Z" fill="#daba64" stroke="#daba64" stroke-miterlimit="22.93" stroke-width="0.5" fill-rule="evenodd"/>
                  <path d="M140.35,123.16c-.13-.19-.21-.53-.31-.49s0,.12-.11.16-.23-.2-.31-.13,0,.13-.1.2-.17-.06-.22.13.09.15.11.26-.06.12,0,.23.24,0,.31.13,0,.11,0,.21.3-.1.5-.15Z" fill="#daba64" stroke="#daba64" stroke-miterlimit="22.93" stroke-width="0.5" fill-rule="evenodd"/>
                  <path d="M141.07,123.25c-.16-.15-.3-.46-.39-.4s0,.12-.08.19-.26-.13-.32,0,0,.14-.06.23-.17,0-.19.19.11.12.15.22,0,.13,0,.24.24-.05.32,0,0,.12,0,.21.27-.17.46-.27Z" fill="#daba64" stroke="#daba64" stroke-miterlimit="22.93" stroke-width="0.5" fill-rule="evenodd"/>
                  <path d="M141.82,123.21c-.17-.14-.32-.44-.41-.37s0,.12-.07.2-.26-.11-.32,0,0,.14,0,.23-.17,0-.18.2.12.11.16.21,0,.14,0,.23.24-.07.32,0,0,.13.05.2.26-.19.44-.31Z" fill="#daba64" stroke="#daba64" stroke-miterlimit="22.93" stroke-width="0.5" fill-rule="evenodd"/>
                  <path d="M142.52,123.09c-.19-.1-.39-.35-.46-.26s0,.11,0,.21-.28,0-.32.06,0,.13,0,.24-.17,0-.15.24.14.08.19.17,0,.14.06.22.22-.12.32-.06,0,.13.08.19.23-.25.38-.41Z" fill="#daba64" stroke="#daba64" stroke-miterlimit="22.93" stroke-width="0.5" fill-rule="evenodd"/>
                  <path d="M143.26,122.84c-.19-.07-.42-.3-.48-.2s0,.11,0,.21-.28,0-.31.1,0,.13,0,.24-.16.06-.12.26.14.07.21.14,0,.14.08.21.21-.15.31-.1,0,.13.1.18.2-.28.35-.45Z" fill="#daba64" stroke="#daba64" stroke-miterlimit="22.93" stroke-width="0.5" fill-rule="evenodd"/>
                  <path d="M143.88,122.44c-.2,0-.46-.19-.51-.08s.06.09,0,.21-.28.06-.29.17.06.12.05.23-.15.1-.08.28.15,0,.23.09,0,.13.11.19.18-.2.29-.17,0,.12.13.15.15-.32.26-.53Z" fill="#daba64" stroke="#daba64" stroke-miterlimit="22.93" stroke-width="0.5" fill-rule="evenodd"/>
                  <path d="M144.33,121.82c-.2.06-.48,0-.5.13s.08.06.07.19-.24.17-.23.28.09.08.11.19-.12.16,0,.3.15,0,.24,0,.07.11.16.13.12-.26.23-.28.06.1.16.09.06-.37.1-.61Z" fill="#daba64" stroke="#daba64" stroke-miterlimit="22.93" stroke-width="0.5" fill-rule="evenodd"/>
                  <path d="M144.55,121.18c-.16.15-.44.25-.41.37s.1,0,.13.14-.17.27-.11.37.11,0,.17.12-.05.2.1.27.12-.1.22-.13.1.07.19,0,0-.3.11-.37.09.06.18,0-.07-.36-.11-.6Z" fill="#daba64" stroke="#daba64" stroke-miterlimit="22.93" stroke-width="0.5" fill-rule="evenodd"/>
                  <path d="M144.24,119.6c0,.24-.21.53-.13.6s.08-.06.18,0,0,.34.1.37.1-.06.19,0,.06.19.22.13,0-.18.1-.26.11,0,.17-.11-.14-.24-.1-.37.1,0,.14-.14-.25-.23-.4-.38Z" fill="#daba64" stroke="#daba64" stroke-miterlimit="22.93" stroke-width="0.5" fill-rule="evenodd"/>
                  <path d="M143.74,119.14c0,.24,0,.59.09.61s.06-.1.16-.08.13.3.22.29.07-.11.16-.13.12.15.24,0,0-.18,0-.29.1-.08.12-.19-.21-.15-.22-.29.09-.07.08-.19-.3-.08-.5-.15Z" fill="#daba64" stroke="#daba64" stroke-miterlimit="22.93" stroke-width="0.5" fill-rule="evenodd"/>
                  <path d="M143.15,118.76c.1.22.12.57.23.55s0-.11.14-.13.19.25.28.2,0-.13.13-.18.15.1.24-.08-.06-.17-.06-.28.08-.11.07-.22-.24-.07-.28-.2.06-.1,0-.21-.31,0-.51,0Z" fill="#daba64" stroke="#daba64" stroke-miterlimit="22.93" stroke-width="0.5" fill-rule="evenodd"/>
                  <path d="M142.45,118.54c.13.19.21.53.31.49s0-.12.11-.16.23.2.31.13,0-.13.1-.2.17.06.22-.13-.09-.15-.11-.26.06-.12,0-.23-.24,0-.31-.13,0-.11,0-.21-.3.1-.5.15Z" fill="#daba64" stroke="#daba64" stroke-miterlimit="22.93" stroke-width="0.5" fill-rule="evenodd"/>
                  <path d="M141.72,118.42c.16.15.3.46.39.4s0-.12.08-.19.26.13.32,0,0-.14.06-.23.17,0,.19-.19-.11-.12-.15-.22,0-.13,0-.24-.24.05-.32,0,0-.12,0-.21-.27.17-.46.28Z" fill="#daba64" stroke="#daba64" stroke-miterlimit="22.93" stroke-width="0.5" fill-rule="evenodd"/>
                  <path d="M141,118.49c.17.14.32.43.41.37s0-.12.07-.2.26.11.32,0,0-.14,0-.23.17,0,.18-.2-.12-.11-.16-.21,0-.14,0-.23-.24.07-.32,0,0-.13-.05-.2-.26.19-.44.31Z" fill="#daba64" stroke="#daba64" stroke-miterlimit="22.93" stroke-width="0.5" fill-rule="evenodd"/>
                  <path d="M140.27,118.58c.19.1.39.35.46.26s0-.11,0-.21.28,0,.32-.06,0-.13,0-.24.17,0,.15-.24-.14-.08-.19-.17,0-.14-.06-.22-.22.12-.32.06,0-.13-.08-.19-.23.25-.38.41Z" fill="#daba64" stroke="#daba64" stroke-miterlimit="22.93" stroke-width="0.5" fill-rule="evenodd"/>
                  <path d="M139.53,118.82c.19.07.42.3.48.2s0-.11,0-.21.28,0,.31-.1,0-.13,0-.24.16-.06.12-.26-.14-.07-.21-.14,0-.14-.08-.21-.21.15-.31.1,0-.13-.1-.18-.2.28-.35.45Z" fill="#daba64" stroke="#daba64" stroke-miterlimit="22.93" stroke-width="0.5" fill-rule="evenodd"/>
                  <path d="M138.92,119.25c.2,0,.46.19.51.08s-.06-.09,0-.21.28-.06.29-.17-.06-.12-.05-.23.15-.1.08-.28-.15,0-.23-.09,0-.13-.11-.19-.18.2-.29.17,0-.12-.13-.15-.15.32-.26.53Z" fill="#daba64" stroke="#daba64" stroke-miterlimit="22.93" stroke-width="0.5" fill-rule="evenodd"/>
                  <path d="M138.49,119.88c.2-.06.48,0,.5-.13s-.08-.06-.07-.19.24-.16.23-.28-.09-.08-.11-.19.12-.16,0-.3-.15,0-.24,0-.07-.11-.16-.13-.12.26-.23.28-.06-.1-.16-.09-.06.37-.1.61Z" fill="#daba64" stroke="#daba64" stroke-miterlimit="22.93" stroke-width="0.5" fill-rule="evenodd"/>
                  <path d="M138.44,120.41c.11-.09.28-.19.25-.29s-.1,0-.14-.13.15-.28.09-.38-.11,0-.17-.11,0-.2-.12-.26-.12.11-.21.14-.1-.06-.19,0,0,.3-.09.38-.1-.05-.18,0,.1.33.15.56c.14,0,.06-.22.2-.21s.13.12.19.18S138.42,120.23,138.44,120.41Z" fill="#daba64" stroke="#daba64" stroke-miterlimit="22.93" stroke-width="0.5" fill-rule="evenodd"/>
                  <path d="M142.17,122.2c-.17-.12-.35-.4-.43-.32s0,.12-.06.2-.27-.09-.32,0,0,.14,0,.23-.17,0-.17.22.13.1.18.19,0,.14,0,.23.23-.09.32,0,0,.13.07.2.25-.22.42-.35Z" fill="#daba64" stroke="#daba64" stroke-miterlimit="22.93" stroke-width="0.5" fill-rule="evenodd"/>
                  <path d="M142.78,122c-.19-.09-.4-.33-.47-.23s0,.11,0,.21-.28,0-.32.07,0,.13,0,.24-.17,0-.14.25.14.08.2.16,0,.14.07.22.22-.14.32-.07,0,.13.09.18.22-.27.37-.43Z" fill="#daba64" stroke="#daba64" stroke-miterlimit="22.93" stroke-width="0.5" fill-rule="evenodd"/>
                  <path d="M143.48,121.63c-.2,0-.46-.19-.51-.08s.06.09,0,.21-.28.06-.29.17.06.12.05.23-.15.1-.08.28.15,0,.23.09,0,.13.11.19.18-.2.29-.17,0,.12.13.15.15-.32.26-.53Z" fill="#daba64" stroke="#daba64" stroke-miterlimit="22.93" stroke-width="0.5" fill-rule="evenodd"/>
                  <path d="M143.89,121c-.19.07-.48,0-.49.17s.09.06.08.19-.24.18-.21.29.09.08.12.18-.11.16,0,.3.15,0,.24,0,.07.11.17.12.1-.27.21-.29.07.1.16.08,0-.37.07-.61Z" fill="#daba64" stroke="#daba64" stroke-miterlimit="22.93" stroke-width="0.5" fill-rule="evenodd"/>
                  <path d="M143.85,120.28c-.1.21-.34.42-.28.52s.1,0,.17.08-.08.33,0,.39.11,0,.19,0,0,.21.17.21.09-.15.17-.21.11,0,.19,0-.07-.28,0-.39.1,0,.17-.08-.17-.31-.28-.52Z" fill="#daba64" stroke="#daba64" stroke-miterlimit="22.93" stroke-width="0.5" fill-rule="evenodd"/>
                  <path d="M143.39,119.67c0,.24-.07.58,0,.62s.07-.09.17-.06.1.32.19.32.08-.09.18-.1.11.16.24,0,0-.18,0-.29.1-.06.13-.17-.19-.18-.19-.32.09-.06.1-.18-.29-.13-.48-.22Z" fill="#daba64" stroke="#daba64" stroke-miterlimit="22.93" stroke-width="0.5" fill-rule="evenodd"/>
                  <path d="M142.76,119.54c.12.19.19.54.29.51s0-.12.12-.16.22.21.3.15,0-.13.1-.2.16.07.22-.12-.08-.15-.1-.26.06-.12,0-.23-.24,0-.3-.15.05-.11,0-.21-.3.08-.5.12Z" fill="#daba64" stroke="#daba64" stroke-miterlimit="22.93" stroke-width="0.5" fill-rule="evenodd"/>
                  <path d="M142.16,119.38c.17.13.33.43.42.36s0-.12.07-.2.27.11.32,0,0-.14,0-.23.17,0,.18-.2-.12-.11-.17-.21,0-.14,0-.23-.24.07-.32,0,0-.13-.06-.2-.26.2-.44.32Z" fill="#daba64" stroke="#daba64" stroke-miterlimit="22.93" stroke-width="0.5" fill-rule="evenodd"/>
                  <path d="M141.49,119.26c.17.13.33.43.42.36s0-.12.07-.2.27.11.32,0,0-.14,0-.23.17,0,.18-.2-.12-.11-.17-.21,0-.14,0-.23-.24.07-.32,0,0-.13-.06-.2-.26.2-.44.32Z" fill="#daba64" stroke="#daba64" stroke-miterlimit="22.93" stroke-width="0.5" fill-rule="evenodd"/>
                  <path d="M140.72,119.37c.17.12.35.4.43.32s0-.12.06-.2.27.09.32,0,0-.14,0-.23.17,0,.17-.22-.13-.1-.18-.2,0-.14,0-.23-.23.09-.32,0,0-.13-.07-.2-.25.22-.42.35Z" fill="#daba64" stroke="#daba64" stroke-miterlimit="22.93" stroke-width="0.5" fill-rule="evenodd"/>
                  <path d="M140.11,119.53c.19.09.4.33.47.23s0-.11,0-.21.28,0,.32-.07,0-.13,0-.24.17,0,.14-.25-.14-.08-.2-.16,0-.14-.07-.22-.22.14-.32.07,0-.13-.09-.18-.22.27-.37.43Z" fill="#daba64" stroke="#daba64" stroke-miterlimit="22.93" stroke-width="0.5" fill-rule="evenodd"/>
                  <path d="M139.37,119.91c.2,0,.46.19.51.08s-.06-.09,0-.21.28-.06.29-.17-.06-.12-.05-.23.15-.1.08-.28-.15,0-.23-.09,0-.13-.11-.19-.18.2-.29.17,0-.12-.13-.15-.15.32-.26.53Z" fill="#daba64" stroke="#daba64" stroke-miterlimit="22.93" stroke-width="0.5" fill-rule="evenodd"/>
                  <path d="M139,120.5c.19-.07.48,0,.49-.16s-.09-.06-.08-.19.24-.18.21-.29-.09-.08-.12-.19.11-.16,0-.3-.15,0-.24,0-.07-.11-.17-.12-.1.27-.21.29-.07-.1-.16-.08,0,.37-.07.61Z" fill="#daba64" stroke="#daba64" stroke-miterlimit="22.93" stroke-width="0.5" fill-rule="evenodd"/>
                  <path d="M139.07,121.2c.1-.21.34-.42.28-.52s-.1,0-.17-.08.08-.33,0-.39-.11,0-.19,0,0-.21-.17-.21-.09.15-.17.21-.11,0-.19,0,.07.28,0,.39-.1,0-.17.08.17.31.28.52Z" fill="#daba64" stroke="#daba64" stroke-miterlimit="22.93" stroke-width="0.5" fill-rule="evenodd"/>
                  <path d="M139.38,121.84c0-.24.07-.58,0-.62s-.06.09-.17.06-.09-.32-.19-.32-.08.09-.17.1-.11-.16-.24,0,0,.18,0,.29-.1.06-.13.17.19.18.19.32-.09.06-.1.18.29.13.48.22Z" fill="#daba64" stroke="#daba64" stroke-miterlimit="22.93" stroke-width="0.5" fill-rule="evenodd"/>
                  <path d="M140.13,122c-.12-.19-.19-.54-.29-.51s0,.12-.12.16-.22-.21-.3-.15,0,.13-.1.2-.16-.07-.22.12.08.15.1.26-.06.12,0,.23.24,0,.3.15-.05.11,0,.21.3-.08.5-.12Z" fill="#daba64" stroke="#daba64" stroke-miterlimit="22.93" stroke-width="0.5" fill-rule="evenodd"/>
                  <path d="M140.72,122.16c-.17-.13-.33-.43-.42-.36s0,.12-.07.2-.27-.11-.32,0,0,.14,0,.23-.17,0-.18.2.12.11.17.21,0,.14,0,.23.24-.07.32,0,0,.13.06.2.26-.2.44-.32Z" fill="#daba64" stroke="#daba64" stroke-miterlimit="22.93" stroke-width="0.5" fill-rule="evenodd"/>
                  <path d="M141.34,122.09c-.17-.13-.25-.33-.33-.26s0,.12-.07.2-.27-.11-.32,0,0,.14,0,.23-.17,0-.18.2.12.11.17.21,0,.14,0,.23.24-.07.32,0,0,.13.06.2.2-.15.37-.27c0-.36-.2-.11-.19-.39S141.31,122.43,141.34,122.09Z" fill="#daba64" stroke="#daba64" stroke-miterlimit="22.93" stroke-width="0.5" fill-rule="evenodd"/>
                  <path d="M145.06,120.4c.1.21.34.42.28.52s-.1,0-.17.08.08.33,0,.39-.11,0-.19,0,0,.21-.17.21-.09-.15-.17-.21-.11,0-.19,0,.07-.28,0-.39-.1,0-.17-.08.17-.31.28-.52Z" fill="#daba64" stroke="#daba64" stroke-miterlimit="22.93" stroke-width="0.5" fill-rule="evenodd"/>
                </g>
                <g>
                  <path d="M138.28,121.29c.1-.21.34-.42.28-.52s-.1,0-.17-.08.08-.33,0-.39-.11,0-.19,0,0-.21-.17-.21-.09.15-.17.21-.11,0-.19,0,.07.28,0,.39-.1,0-.17.08.17.31.28.52Z" fill="#009640" fill-rule="evenodd"/>
                  <path d="M138.56,122.1c0-.24.21-.53.13-.6s-.08.06-.18,0,0-.34-.1-.37-.1.06-.19,0-.06-.19-.22-.13,0,.18-.1.26-.11,0-.17.11.14.24.1.37-.1,0-.14.13.25.23.4.38Z" fill="#009640" fill-rule="evenodd"/>
                  <path d="M139.09,122.52c0-.24,0-.59-.09-.61s-.06.1-.16.08-.13-.3-.22-.29-.07.11-.16.13-.12-.15-.24,0,0,.18,0,.29-.1.08-.12.19.21.15.22.29-.09.07-.08.19.3.08.5.15Z" fill="#009640" fill-rule="evenodd"/>
                  <path d="M139.67,122.94c-.1-.22-.12-.57-.23-.55s0,.11-.14.13-.19-.25-.28-.2,0,.13-.13.18-.15-.1-.24.08.06.17.06.28-.08.11-.07.22.24.07.28.2-.06.1,0,.21.31,0,.51,0Z" fill="#009640" fill-rule="evenodd"/>
                  <path d="M140.35,123.16c-.13-.19-.21-.53-.31-.49s0,.12-.11.16-.23-.2-.31-.13,0,.13-.1.2-.17-.06-.22.13.09.15.11.26-.06.12,0,.23.24,0,.31.13,0,.11,0,.21.3-.1.5-.15Z" fill="#009640" fill-rule="evenodd"/>
                  <path d="M141.07,123.25c-.16-.15-.3-.46-.39-.4s0,.12-.08.19-.26-.13-.32,0,0,.14-.06.23-.17,0-.19.19.11.12.15.22,0,.13,0,.24.24-.05.32,0,0,.12,0,.21.27-.17.46-.27Z" fill="#009640" fill-rule="evenodd"/>
                  <path d="M141.82,123.21c-.17-.14-.32-.44-.41-.37s0,.12-.07.2-.26-.11-.32,0,0,.14,0,.23-.17,0-.18.2.12.11.16.21,0,.14,0,.23.24-.07.32,0,0,.13.05.2.26-.19.44-.31Z" fill="#009640" fill-rule="evenodd"/>
                  <path d="M142.52,123.09c-.19-.1-.39-.35-.46-.26s0,.11,0,.21-.28,0-.32.06,0,.13,0,.24-.17,0-.15.24.14.08.19.17,0,.14.06.22.22-.12.32-.06,0,.13.08.19.23-.25.38-.41Z" fill="#009640" fill-rule="evenodd"/>
                  <path d="M143.26,122.84c-.19-.07-.42-.3-.48-.2s0,.11,0,.21-.28,0-.31.1,0,.13,0,.24-.16.06-.12.26.14.07.21.14,0,.14.08.21.21-.15.31-.1,0,.13.1.18.2-.28.35-.45Z" fill="#009640" fill-rule="evenodd"/>
                  <path d="M143.88,122.44c-.2,0-.46-.19-.51-.08s.06.09,0,.21-.28.06-.29.17.06.12.05.23-.15.1-.08.28.15,0,.23.09,0,.13.11.19.18-.2.29-.17,0,.12.13.15.15-.32.26-.53Z" fill="#009640" fill-rule="evenodd"/>
                  <path d="M144.33,121.82c-.2.06-.48,0-.5.13s.08.06.07.19-.24.17-.23.28.09.08.11.19-.12.16,0,.3.15,0,.24,0,.07.11.16.13.12-.26.23-.28.06.1.16.09.06-.37.1-.61Z" fill="#009640" fill-rule="evenodd"/>
                  <path d="M144.55,121.18c-.16.15-.44.25-.41.37s.1,0,.13.14-.17.27-.11.37.11,0,.17.12-.05.2.1.27.12-.1.22-.13.1.07.19,0,0-.3.11-.37.09.06.18,0-.07-.36-.11-.6Z" fill="#009640" fill-rule="evenodd"/>
                  <path d="M144.24,119.6c0,.24-.21.53-.13.6s.08-.06.18,0,0,.34.1.37.1-.06.19,0,.06.19.22.13,0-.18.1-.26.11,0,.17-.11-.14-.24-.1-.37.1,0,.14-.14-.25-.23-.4-.38Z" fill="#009640" fill-rule="evenodd"/>
                  <path d="M143.74,119.14c0,.24,0,.59.09.61s.06-.1.16-.08.13.3.22.29.07-.11.16-.13.12.15.24,0,0-.18,0-.29.1-.08.12-.19-.21-.15-.22-.29.09-.07.08-.19-.3-.08-.5-.15Z" fill="#009640" fill-rule="evenodd"/>
                  <path d="M143.15,118.76c.1.22.12.57.23.55s0-.11.14-.13.19.25.28.2,0-.13.13-.18.15.1.24-.08-.06-.17-.06-.28.08-.11.07-.22-.24-.07-.28-.2.06-.1,0-.21-.31,0-.51,0Z" fill="#009640" fill-rule="evenodd"/>
                  <path d="M142.45,118.54c.13.19.21.53.31.49s0-.12.11-.16.23.2.31.13,0-.13.1-.2.17.06.22-.13-.09-.15-.11-.26.06-.12,0-.23-.24,0-.31-.13,0-.11,0-.21-.3.1-.5.15Z" fill="#009640" fill-rule="evenodd"/>
                  <path d="M141.72,118.42c.16.15.3.46.39.4s0-.12.08-.19.26.13.32,0,0-.14.06-.23.17,0,.19-.19-.11-.12-.15-.22,0-.13,0-.24-.24.05-.32,0,0-.12,0-.21-.27.17-.46.28Z" fill="#009640" fill-rule="evenodd"/>
                  <path d="M141,118.49c.17.14.32.43.41.37s0-.12.07-.2.26.11.32,0,0-.14,0-.23.17,0,.18-.2-.12-.11-.16-.21,0-.14,0-.23-.24.07-.32,0,0-.13-.05-.2-.26.19-.44.31Z" fill="#009640" fill-rule="evenodd"/>
                  <path d="M140.27,118.58c.19.1.39.35.46.26s0-.11,0-.21.28,0,.32-.06,0-.13,0-.24.17,0,.15-.24-.14-.08-.19-.17,0-.14-.06-.22-.22.12-.32.06,0-.13-.08-.19-.23.25-.38.41Z" fill="#009640" fill-rule="evenodd"/>
                  <path d="M139.53,118.82c.19.07.42.3.48.2s0-.11,0-.21.28,0,.31-.1,0-.13,0-.24.16-.06.12-.26-.14-.07-.21-.14,0-.14-.08-.21-.21.15-.31.1,0-.13-.1-.18-.2.28-.35.45Z" fill="#009640" fill-rule="evenodd"/>
                  <path d="M138.92,119.25c.2,0,.46.19.51.08s-.06-.09,0-.21.28-.06.29-.17-.06-.12-.05-.23.15-.1.08-.28-.15,0-.23-.09,0-.13-.11-.19-.18.2-.29.17,0-.12-.13-.15-.15.32-.26.53Z" fill="#009640" fill-rule="evenodd"/>
                  <path d="M138.49,119.88c.2-.06.48,0,.5-.13s-.08-.06-.07-.19.24-.16.23-.28-.09-.08-.11-.19.12-.16,0-.3-.15,0-.24,0-.07-.11-.16-.13-.12.26-.23.28-.06-.1-.16-.09-.06.37-.1.61Z" fill="#009640" fill-rule="evenodd"/>
                  <path d="M138.44,120.41c.11-.09.28-.19.25-.29s-.1,0-.14-.13.15-.28.09-.38-.11,0-.17-.11,0-.2-.12-.26-.12.11-.21.14-.1-.06-.19,0,0,.3-.09.38-.1-.05-.18,0,.1.33.15.56c.14,0,.06-.22.2-.21s.13.12.19.18S138.42,120.23,138.44,120.41Z" fill="#009640" fill-rule="evenodd"/>
                  <path d="M142.17,122.2c-.17-.12-.35-.4-.43-.32s0,.12-.06.2-.27-.09-.32,0,0,.14,0,.23-.17,0-.17.22.13.1.18.19,0,.14,0,.23.23-.09.32,0,0,.13.07.2.25-.22.42-.35Z" fill="#009640" fill-rule="evenodd"/>
                  <path d="M142.78,122c-.19-.09-.4-.33-.47-.23s0,.11,0,.21-.28,0-.32.07,0,.13,0,.24-.17,0-.14.25.14.08.2.16,0,.14.07.22.22-.14.32-.07,0,.13.09.18.22-.27.37-.43Z" fill="#009640" fill-rule="evenodd"/>
                  <path d="M143.48,121.63c-.2,0-.46-.19-.51-.08s.06.09,0,.21-.28.06-.29.17.06.12.05.23-.15.1-.08.28.15,0,.23.09,0,.13.11.19.18-.2.29-.17,0,.12.13.15.15-.32.26-.53Z" fill="#009640" fill-rule="evenodd"/>
                  <path d="M143.89,121c-.19.07-.48,0-.49.17s.09.06.08.19-.24.18-.21.29.09.08.12.18-.11.16,0,.3.15,0,.24,0,.07.11.17.12.1-.27.21-.29.07.1.16.08,0-.37.07-.61Z" fill="#009640" fill-rule="evenodd"/>
                  <path d="M143.85,120.28c-.1.21-.34.42-.28.52s.1,0,.17.08-.08.33,0,.39.11,0,.19,0,0,.21.17.21.09-.15.17-.21.11,0,.19,0-.07-.28,0-.39.1,0,.17-.08-.17-.31-.28-.52Z" fill="#009640" fill-rule="evenodd"/>
                  <path d="M143.39,119.67c0,.24-.07.58,0,.62s.07-.09.17-.06.1.32.19.32.08-.09.18-.1.11.16.24,0,0-.18,0-.29.1-.06.13-.17-.19-.18-.19-.32.09-.06.1-.18-.29-.13-.48-.22Z" fill="#009640" fill-rule="evenodd"/>
                  <path d="M142.76,119.54c.12.19.19.54.29.51s0-.12.12-.16.22.21.3.15,0-.13.1-.2.16.07.22-.12-.08-.15-.1-.26.06-.12,0-.23-.24,0-.3-.15.05-.11,0-.21-.3.08-.5.12Z" fill="#009640" fill-rule="evenodd"/>
                  <path d="M142.16,119.38c.17.13.33.43.42.36s0-.12.07-.2.27.11.32,0,0-.14,0-.23.17,0,.18-.2-.12-.11-.17-.21,0-.14,0-.23-.24.07-.32,0,0-.13-.06-.2-.26.2-.44.32Z" fill="#009640" fill-rule="evenodd"/>
                  <path d="M141.49,119.26c.17.13.33.43.42.36s0-.12.07-.2.27.11.32,0,0-.14,0-.23.17,0,.18-.2-.12-.11-.17-.21,0-.14,0-.23-.24.07-.32,0,0-.13-.06-.2-.26.2-.44.32Z" fill="#009640" fill-rule="evenodd"/>
                  <path d="M140.72,119.37c.17.12.35.4.43.32s0-.12.06-.2.27.09.32,0,0-.14,0-.23.17,0,.17-.22-.13-.1-.18-.2,0-.14,0-.23-.23.09-.32,0,0-.13-.07-.2-.25.22-.42.35Z" fill="#009640" fill-rule="evenodd"/>
                  <path d="M140.11,119.53c.19.09.4.33.47.23s0-.11,0-.21.28,0,.32-.07,0-.13,0-.24.17,0,.14-.25-.14-.08-.2-.16,0-.14-.07-.22-.22.14-.32.07,0-.13-.09-.18-.22.27-.37.43Z" fill="#009640" fill-rule="evenodd"/>
                  <path d="M139.37,119.91c.2,0,.46.19.51.08s-.06-.09,0-.21.28-.06.29-.17-.06-.12-.05-.23.15-.1.08-.28-.15,0-.23-.09,0-.13-.11-.19-.18.2-.29.17,0-.12-.13-.15-.15.32-.26.53Z" fill="#009640" fill-rule="evenodd"/>
                  <path d="M139,120.5c.19-.07.48,0,.49-.16s-.09-.06-.08-.19.24-.18.21-.29-.09-.08-.12-.19.11-.16,0-.3-.15,0-.24,0-.07-.11-.17-.12-.1.27-.21.29-.07-.1-.16-.08,0,.37-.07.61Z" fill="#009640" fill-rule="evenodd"/>
                  <path d="M139.07,121.2c.1-.21.34-.42.28-.52s-.1,0-.17-.08.08-.33,0-.39-.11,0-.19,0,0-.21-.17-.21-.09.15-.17.21-.11,0-.19,0,.07.28,0,.39-.1,0-.17.08.17.31.28.52Z" fill="#009640" fill-rule="evenodd"/>
                  <path d="M139.38,121.84c0-.24.07-.58,0-.62s-.06.09-.17.06-.09-.32-.19-.32-.08.09-.17.1-.11-.16-.24,0,0,.18,0,.29-.1.06-.13.17.19.18.19.32-.09.06-.1.18.29.13.48.22Z" fill="#009640" fill-rule="evenodd"/>
                  <path d="M140.13,122c-.12-.19-.19-.54-.29-.51s0,.12-.12.16-.22-.21-.3-.15,0,.13-.1.2-.16-.07-.22.12.08.15.1.26-.06.12,0,.23.24,0,.3.15-.05.11,0,.21.3-.08.5-.12Z" fill="#009640" fill-rule="evenodd"/>
                  <path d="M140.72,122.16c-.17-.13-.33-.43-.42-.36s0,.12-.07.2-.27-.11-.32,0,0,.14,0,.23-.17,0-.18.2.12.11.17.21,0,.14,0,.23.24-.07.32,0,0,.13.06.2.26-.2.44-.32Z" fill="#009640" fill-rule="evenodd"/>
                  <path d="M141.34,122.09c-.17-.13-.25-.33-.33-.26s0,.12-.07.2-.27-.11-.32,0,0,.14,0,.23-.17,0-.18.2.12.11.17.21,0,.14,0,.23.24-.07.32,0,0,.13.06.2.2-.15.37-.27c0-.36-.2-.11-.19-.39S141.31,122.43,141.34,122.09Z" fill="#009640" fill-rule="evenodd"/>
                  <path d="M145.06,120.4c.1.21.34.42.28.52s-.1,0-.17.08.08.33,0,.39-.11,0-.19,0,0,.21-.17.21-.09-.15-.17-.21-.11,0-.19,0,.07-.28,0-.39-.1,0-.17-.08.17-.31.28-.52Z" fill="#009640" fill-rule="evenodd"/>
                </g>
                <ellipse cx="141.42" cy="120.79" rx="2.93" ry="2.2" fill="none" stroke="#009640" stroke-miterlimit="22.93" stroke-width="1.2"/>
              </g>
            </g>
            <polygon points="141.61 165.01 137.24 155.7 134.28 159.35 133.26 154.72 129.72 157.86 129.42 153.13 125.43 155.7 125.83 150.96 116.14 154.46 119.63 144.79 114.95 145.27 117.5 141.28 112.77 140.99 115.92 137.44 111.28 136.43 114.92 133.37 105.59 128.99 114.92 124.61 111.28 121.54 115.92 120.53 112.77 116.98 117.5 116.69 114.95 112.7 119.63 113.18 116.14 103.52 125.83 107.01 125.43 102.27 129.42 104.84 129.72 100.11 133.26 103.25 134.28 98.62 137.24 102.27 141.61 92.96 145.97 102.27 148.94 98.62 149.95 103.25 153.5 100.11 153.8 104.84 157.79 102.27 157.38 107.01 167.08 103.52 163.58 113.18 168.26 112.7 165.71 116.69 170.44 116.98 167.3 120.53 171.94 121.54 168.3 124.61 177.63 128.99 168.3 133.37 171.94 136.43 167.3 137.44 170.44 140.99 165.71 141.28 168.26 145.27 163.58 144.79 167.08 154.46 157.38 150.96 157.79 155.7 153.8 153.13 153.5 157.86 149.95 154.72 148.94 159.35 145.97 155.7 141.61 165.01" fill="none" stroke="#f9e093" stroke-miterlimit="22.93" fill-rule="evenodd"/>
          </g>
        </g>
      </g>
    </g>
  </g>
</svg>
